<svg width="54" height="53" viewBox="0 0 54 53" fill="none" xmlns="http://www.w3.org/2000/svg">
<g clip-path="url(#clip0_30_11)">
<path d="M40.457 33.4146H32.6312V25.2576C32.6312 21.6553 29.7121 18.7361 26.1098 18.7361H7.43555C3.8332 18.7361 0.914062 21.6553 0.914062 25.2576V46.8717C0.914062 48.4451 2.19766 49.7287 3.77109 49.7287C4.55781 49.7287 5.28242 49.4182 5.8 48.9006C6.31758 48.383 6.62812 47.6791 6.62812 46.8717V28.508C6.62812 28.0732 6.98008 27.7006 7.43555 27.7006H7.45625C7.91172 27.7006 8.26367 28.0525 8.26367 28.508V49.7287H25.3852V28.5701C25.3852 28.0939 25.6957 27.7006 26.2547 27.7006C26.7723 27.7213 27.0207 28.1561 27.0207 28.5908V35.8369C27.0207 37.6381 28.4906 39.108 30.2918 39.0873L40.457 39.108C42.0305 39.108 43.3141 37.8244 43.3141 36.251C43.3141 34.6775 42.0305 33.4146 40.457 33.4146ZM51.6367 21.5518C50.1254 19.0881 46.9164 14.9061 45.3223 12.8564L49.525 6.66621H37.8898L42.0719 12.8357C40.4777 14.8646 37.248 19.0674 35.7367 21.5518C35.0535 22.6697 34.2875 23.9326 34.2875 25.9822C34.2875 29.1705 36.7098 31.7791 39.691 31.7791H47.6617C50.643 31.7791 53.0652 29.1705 53.0652 25.9822C53.0859 23.9326 52.3199 22.6697 51.6367 21.5518ZM44.3492 26.9967V28.1146H42.9621V26.9553C42.2375 26.7896 41.5543 26.4377 40.9332 25.858L41.9891 24.6986C41.9891 24.6986 42.7551 25.3611 43.4797 25.4646C44.3078 25.5889 44.8047 25.1955 44.8668 24.6779C44.9703 23.7049 43.0656 23.3322 42.3824 22.9596C41.5543 22.5248 40.7469 21.9244 40.7469 20.6615C40.7469 19.3779 41.6371 18.4256 42.9828 18.3014V17.1006H44.3699V18.3428C45.2394 18.5291 45.8398 19.0053 46.316 19.3572L45.3637 20.5994C45.0738 20.3303 44.5148 19.9783 43.9973 19.8541C43.3348 19.6885 42.6102 19.8748 42.5687 20.5994C42.548 20.8893 42.6723 21.4896 44.1215 21.9244C44.8875 22.1729 46.668 22.6904 46.668 24.5537C46.6473 25.8373 45.6742 26.8518 44.3492 26.9967ZM10.0855 10.2064C10.0855 6.47988 13.1082 3.43652 16.8555 3.43652C20.6027 3.43652 23.6254 6.45918 23.6254 10.2064C23.6254 13.9537 20.582 16.9764 16.8555 16.9764C13.1289 16.9764 10.0855 13.9537 10.0855 10.2064Z" fill="white"/>
</g>
<defs>
<clipPath id="clip0_30_11">
<rect width="53" height="53" fill="white" transform="translate(0.5)"/>
</clipPath>
</defs>
</svg>
