<svg viewBox="0 0 1440 800" xmlns="http://www.w3.org/2000/svg">
  <defs>
    <!-- Main Background Gradient -->
    <linearGradient id="heroGradient" x1="0%" y1="0%" x2="100%" y2="100%">
      <stop offset="0%" style="stop-color:#1a2a2e;stop-opacity:1" />
      <stop offset="25%" style="stop-color:#184734;stop-opacity:1" />
      <stop offset="75%" style="stop-color:#256d4a;stop-opacity:1" />
      <stop offset="100%" style="stop-color:#23272a;stop-opacity:1" />
    </linearGradient>
    
    <!-- Diagonal overlay gradient -->
    <linearGradient id="overlayGradient" x1="0%" y1="0%" x2="100%" y2="100%">
      <stop offset="0%" style="stop-color:#184734;stop-opacity:0.8" />
      <stop offset="50%" style="stop-color:#256d4a;stop-opacity:0.6" />
      <stop offset="100%" style="stop-color:#1a2a2e;stop-opacity:0.9" />
    </linearGradient>
    
    <!-- Gold accent gradient -->
    <radialGradient id="goldRadial" cx="70%" cy="30%" r="40%">
      <stop offset="0%" style="stop-color:#F4B13D;stop-opacity:0.3" />
      <stop offset="50%" style="stop-color:#F4B13D;stop-opacity:0.1" />
      <stop offset="100%" style="stop-color:#F4B13D;stop-opacity:0.05" />
    </radialGradient>
    
    <!-- Animated pulse gradient -->
    <radialGradient id="pulseGradient" cx="80%" cy="20%" r="30%">
      <stop offset="0%" style="stop-color:#F4B13D;stop-opacity:0.4" />
      <stop offset="100%" style="stop-color:#F4B13D;stop-opacity:0" />
    </radialGradient>
    
    <!-- Pattern for texture -->
    <pattern id="networkPattern" patternUnits="userSpaceOnUse" width="100" height="100">
      <circle cx="50" cy="50" r="1.5" fill="#F4B13D" opacity="0.2"/>
      <circle cx="25" cy="25" r="1" fill="#ffffff" opacity="0.1"/>
      <circle cx="75" cy="75" r="1" fill="#ffffff" opacity="0.1"/>
      <line x1="50" y1="50" x2="25" y2="25" stroke="#F4B13D" stroke-width="0.5" opacity="0.15"/>
      <line x1="50" y1="50" x2="75" y2="75" stroke="#F4B13D" stroke-width="0.5" opacity="0.15"/>
    </pattern>
    
    <!-- Abstract shape gradients -->
    <linearGradient id="shapeGrad1" x1="0%" y1="0%" x2="100%" y2="100%">
      <stop offset="0%" style="stop-color:#256d4a;stop-opacity:0.4" />
      <stop offset="100%" style="stop-color:#184734;stop-opacity:0.1" />
    </linearGradient>
    
    <linearGradient id="shapeGrad2" x1="0%" y1="0%" x2="100%" y2="100%">
      <stop offset="0%" style="stop-color:#F4B13D;stop-opacity:0.3" />
      <stop offset="100%" style="stop-color:#F4B13D;stop-opacity:0.1" />
    </linearGradient>
    
    <!-- Glow effect -->
    <filter id="glow" x="-50%" y="-50%" width="200%" height="200%">
      <feGaussianBlur stdDeviation="4" result="coloredBlur"/>
      <feMerge> 
        <feMergeNode in="coloredBlur"/>
        <feMergeNode in="SourceGraphic"/>
      </feMerge>
    </filter>
  </defs>
  
  <!-- Main Background with Rich Gradient -->
  <rect width="1440" height="800" fill="url(#heroGradient)"/>
  
  <!-- Overlay pattern for texture -->
  <rect width="1440" height="800" fill="url(#networkPattern)" opacity="0.6"/>
  
  <!-- Large Abstract Background Shapes -->
  <!-- Top right flowing shape -->
  <path d="M1000,0 Q1200,100 1440,80 L1440,300 Q1300,250 1100,200 Q950,150 1000,0 Z" fill="url(#goldRadial)" opacity="0.8">
    <animate attributeName="opacity" values="0.8;1;0.8" dur="6s" repeatCount="indefinite"/>
  </path>
  
  <!-- Bottom left organic shape -->
  <path d="M0,500 Q200,450 400,500 Q300,600 200,650 Q100,700 0,650 Z" fill="url(#shapeGrad1)" opacity="0.7">
    <animate attributeName="opacity" values="0.7;0.9;0.7" dur="8s" repeatCount="indefinite"/>
  </path>
  
  <!-- Center floating elements -->
  <ellipse cx="800" cy="400" rx="150" ry="80" fill="url(#pulseGradient)" opacity="0.6" transform="rotate(-25 800 400)">
    <animateTransform attributeName="transform" type="rotate" values="-25 800 400;15 800 400;-25 800 400" dur="12s" repeatCount="indefinite"/>
  </ellipse>
  
  <!-- Dynamic geometric elements -->
  <polygon points="1200,300 1280,350 1240,420 1160,370" fill="url(#shapeGrad2)" opacity="0.8">
    <animateTransform attributeName="transform" type="rotate" values="0 1220 360;360 1220 360" dur="20s" repeatCount="indefinite"/>
  </polygon>
  
  <circle cx="300" cy="200" r="40" fill="#F4B13D" opacity="0.2">
    <animate attributeName="r" values="40;60;40" dur="5s" repeatCount="indefinite"/>
    <animate attributeName="opacity" values="0.2;0.4;0.2" dur="5s" repeatCount="indefinite"/>
  </circle>
  
  <!-- Flowing wave elements -->
  <path d="M0,600 Q360,580 720,600 Q1080,620 1440,600 L1440,800 L0,800 Z" fill="url(#overlayGradient)" opacity="0.3"/>
  
  <!-- Abstract geometric lines -->
  <line x1="600" y1="200" x2="900" y2="300" stroke="#F4B13D" stroke-width="2" opacity="0.4" filter="url(#glow)">
    <animate attributeName="opacity" values="0.4;0.7;0.4" dur="4s" repeatCount="indefinite"/>
  </line>
  
  <line x1="200" y1="400" x2="500" y2="350" stroke="#ffffff" stroke-width="1" opacity="0.3">
    <animate attributeName="opacity" values="0.3;0.6;0.3" dur="6s" repeatCount="indefinite"/>
  </line>
  
  <!-- Background accent for text area -->
  <ellipse cx="350" cy="400" rx="400" ry="200" fill="url(#overlayGradient)" opacity="0.3"/>
  
  <!-- Right Side Abstract Design Elements -->
  <!-- Large circular design -->
  <circle cx="1100" cy="350" r="120" fill="none" stroke="#F4B13D" stroke-width="2" opacity="0.4">
    <animate attributeName="r" values="120;140;120" dur="8s" repeatCount="indefinite"/>
  </circle>
  <circle cx="1100" cy="350" r="80" fill="none" stroke="#ffffff" stroke-width="1" opacity="0.3">
    <animate attributeName="r" values="80;90;80" dur="6s" repeatCount="indefinite"/>
  </circle>
  
  <!-- Abstract connecting lines -->
  <path d="M950,300 Q1050,250 1150,300 Q1200,350 1150,400 Q1050,450 950,400 Z" fill="none" stroke="#F4B13D" stroke-width="1.5" opacity="0.5">
    <animate attributeName="opacity" values="0.5;0.8;0.5" dur="7s" repeatCount="indefinite"/>
  </path>
  
  <!-- Floating data points visualization -->
  <circle cx="1000" cy="280" r="6" fill="#F4B13D" opacity="0.8">
    <animate attributeName="cy" values="280;270;280" dur="3s" repeatCount="indefinite"/>
  </circle>
  <circle cx="1180" cy="320" r="4" fill="#ffffff" opacity="0.6">
    <animate attributeName="cy" values="320;310;320" dur="4s" repeatCount="indefinite"/>
  </circle>
  <circle cx="1050" cy="420" r="5" fill="#F4B13D" opacity="0.7">
    <animate attributeName="cy" values="420;410;420" dur="3.5s" repeatCount="indefinite"/>
  </circle>
  
  <!-- Modern tech-inspired grid -->
  <g opacity="0.2">
    <line x1="900" y1="200" x2="1300" y2="200" stroke="#ffffff" stroke-width="0.5"/>
    <line x1="900" y1="250" x2="1300" y2="250" stroke="#ffffff" stroke-width="0.5"/>
    <line x1="900" y1="300" x2="1300" y2="300" stroke="#ffffff" stroke-width="0.5"/>
    <line x1="950" y1="150" x2="950" y2="350" stroke="#ffffff" stroke-width="0.5"/>
    <line x1="1100" y1="150" x2="1100" y2="350" stroke="#ffffff" stroke-width="0.5"/>
    <line x1="1250" y1="150" x2="1250" y2="350" stroke="#ffffff" stroke-width="0.5"/>
  </g>
  
  <!-- Additional floating geometric elements -->
  <rect x="150" y="300" width="30" height="30" rx="4" fill="#F4B13D" opacity="0.3" transform="rotate(15 165 315)">
    <animateTransform attributeName="transform" type="rotate" values="15 165 315;375 165 315" dur="15s" repeatCount="indefinite"/>
  </rect>
  
  <polygon points="750,150 780,180 750,210 720,180" fill="#ffffff" opacity="0.2">
    <animateTransform attributeName="transform" type="rotate" values="0 750 180;360 750 180" dur="18s" repeatCount="indefinite"/>
  </polygon>
  
  <!-- Additional organic shapes -->
  <path d="M1300,500 Q1350,450 1440,480 L1440,600 Q1380,580 1330,550 Q1280,520 1300,500 Z" fill="url(#shapeGrad1)" opacity="0.4">
    <animate attributeName="opacity" values="0.4;0.6;0.4" dur="9s" repeatCount="indefinite"/>
  </path>
  
  <!-- Final overlay for depth -->
  <rect width="1440" height="800" fill="url(#overlayGradient)" opacity="0.1"/>
</svg>