<svg width="41" height="55" viewBox="0 0 41 55" fill="none" xmlns="http://www.w3.org/2000/svg">
<path d="M25.5406 26.8632L36.5746 22.0781L37.2326 52.346H12.8867V33.5124L25.5406 26.8632Z" fill="#24513D"/>
<rect x="15.793" y="40.7363" width="1.81822" height="10.7489" fill="#CD9A4D"/>
<rect x="19.376" y="37.667" width="1.97399" height="13.8179" fill="#CD9A4D"/>
<rect x="23.1147" y="35.0352" width="1.97399" height="16.4499" fill="#CD9A4D"/>
<rect x="26.8535" y="32.4033" width="1.97399" height="19.0819" fill="#CD9A4D"/>
<rect x="30.5923" y="29.7715" width="1.97399" height="21.7139" fill="#CD9A4D"/>
<rect x="34.3311" y="27.1387" width="1.97399" height="24.3459" fill="#CD9A4D"/>
<path d="M2.39551 33.9547C2.39551 17.5058 6.97265 11.7076 20.2642 2.99609C34.1059 12.4344 38.198 19.1875 38.5485 33.9547V53.0008H2.39551V33.9547Z" stroke="#24513D" stroke-width="3.46293"/>
<path d="M18.3726 29.6676V12.8887C17.9233 12.9085 17.7431 13.0406 17.6562 13.4314C17.6562 13.7788 17.6696 13.9588 18.0687 14.1913V15.0597C17.7843 15.0732 17.6766 15.1339 17.6562 15.4287C17.6562 15.711 17.7214 15.8195 18.0687 15.9063C14.1321 19.0152 13.2038 20.8282 14.3346 24.2212H12.2288V26.631C13.2055 27.138 13.0972 28.802 13.0972 28.802V32.5795L18.3726 29.6676Z" fill="#24513D"/>
<path d="M18.3665 29.647L18.2393 12.8658C18.6884 12.8904 18.8672 13.0244 18.95 13.4161C18.9463 13.7634 18.9311 13.9433 18.5295 14.1716L18.5204 15.0399C18.8046 15.0565 18.9116 15.1183 18.9289 15.4133C18.926 15.6955 18.8597 15.8034 18.5114 15.8865C22.4151 19.0367 23.3242 20.8594 22.1578 24.2403L22.1212 27.7125L18.3665 29.647Z" fill="#24513D"/>
</svg>
