<svg width="50" height="50" viewBox="0 0 50 50" fill="none" xmlns="http://www.w3.org/2000/svg">
<g clip-path="url(#clip0_30_31)">
<path d="M10.2375 19.4286C5.10634 19.4286 0.938291 15.2605 0.938291 10.1293C0.938291 4.99813 5.13125 0.830078 10.2375 0.830078C15.3687 0.830078 19.5368 4.99813 19.5368 10.1293C19.5368 15.2605 15.377 19.4286 10.2375 19.4286ZM10.2375 2.59029C6.09439 2.59029 2.70681 5.97787 2.70681 10.121C2.70681 14.2642 6.09439 17.6517 10.2375 17.6517C14.3807 17.6517 17.7682 14.2642 17.7682 10.121C17.7682 5.97787 14.4139 2.59029 10.2375 2.59029ZM32.921 35.3701C34.5982 33.228 34.3076 30.1061 32.0741 28.3542C29.932 26.677 26.7354 27.0589 25.0582 29.2011C23.381 31.3432 23.6716 34.4651 25.9051 36.217C28.0472 37.8776 31.2438 37.4956 32.921 35.3701ZM26.8682 33.0785C26.1957 32.5388 26.0047 31.7085 26.4448 30.8035L25.7722 30.2638L26.37 29.4917L26.9679 29.9566C27.2418 29.6079 27.74 29.3173 28.1053 29.0516L28.7613 29.9732C28.5454 30.0729 28.1801 30.3552 27.7815 30.8616C27.4577 31.2851 27.4162 31.6753 27.6653 31.8829C27.9144 32.0739 28.3046 31.9576 29.0187 31.5757C30.0233 30.9945 30.7125 30.8201 31.3933 31.3598C31.933 31.9161 32.0326 32.8211 31.6673 33.6514L32.3398 34.1911L31.742 34.9633L31.1442 34.4983C30.8702 34.847 30.1645 35.3867 29.8905 35.5777L29.2345 34.6561C29.5999 34.5398 30.1811 34.1579 30.5049 33.7344C30.9117 33.2113 30.9283 32.8294 30.6045 32.5554C30.3554 32.3645 30.0482 32.3811 29.3093 32.7879C28.4292 33.3442 27.5491 33.6182 26.8682 33.0785ZM9.25779 11.9393C8.99209 11.7816 8.83434 11.491 8.83434 11.1755V5.05625C8.83434 4.56638 9.24118 4.18445 9.70614 4.18445C10.1711 4.18445 10.5779 4.59129 10.5779 5.05625V9.69757L14.8788 7.34785C15.3023 7.12367 15.842 7.28142 16.0662 7.70487C16.2903 8.12832 16.1326 8.66801 15.7091 8.89218L10.1047 11.9393C9.99674 12.0307 9.54839 12.0971 9.25779 11.9393ZM37.5706 15.493L34.6563 18.7726L31.5178 16.3233L23.7297 26.3116C23.572 26.212 23.1153 26.0044 23.0738 25.9463C21.4132 25.1742 19.1797 25.2489 17.5607 26.0792L0.705811 35.4863V47.9822L8.17011 44.3372C11.5245 45.9148 15.3604 45.5162 18.4491 43.6066L25.739 49.294L27.9144 46.496L29.6331 48.0154L49.2943 25.938L37.5706 15.493ZM27.4328 44.8769C26.0213 44.1463 24.2694 44.3787 23.1153 45.4747L17.3116 40.9247C16.0412 41.946 14.4969 42.4857 12.9194 42.4857C12.2053 42.4857 11.5079 42.3694 10.8187 42.1619C10.47 42.0456 10.279 41.6803 10.3787 41.3316C10.4949 40.9829 10.8602 40.7919 11.209 40.8915C12.9277 41.4312 14.7958 41.124 16.2405 40.0778C16.6058 39.8038 16.9961 39.48 17.3946 39.04L19.1714 36.9393L24.3026 40.9662C25.191 41.5807 26.2289 41.4312 26.8101 40.7338C27.4245 39.8454 27.2751 38.7826 26.5776 38.2263L17.3614 30.8035C17.0874 30.5876 17.0542 30.1891 17.2618 29.9151C17.4776 29.6411 17.8762 29.6079 18.1502 29.8155L20.9815 32.0905L29.8988 20.6242C31.2687 21.3382 32.9459 21.1223 34.0834 20.1011L39.4637 24.2857C38.733 25.6972 38.9821 27.4242 40.0781 28.5866L27.4328 44.8769ZM30.4385 43.2412L43.8974 25.9629L36.1259 19.9101C37.3631 20.4498 38.8244 20.2754 39.9038 19.4286L44.9934 23.9619C44.1797 25.3153 44.296 27.0672 45.3172 28.2794L31.6092 43.6813C31.2438 43.4903 30.8619 43.3326 30.4385 43.2412Z" fill="white"/>
</g>
<defs>
<clipPath id="clip0_30_31">
<rect width="50" height="50" fill="white"/>
</clipPath>
</defs>
</svg>
