<svg width="139" height="56" viewBox="0 0 139 56" fill="none" xmlns="http://www.w3.org/2000/svg">
<path d="M25.5406 26.8632L36.5746 22.0781L37.2326 52.346H12.8867V33.5124L25.5406 26.8632Z" fill="#24513D"/>
<rect x="15.793" y="40.7363" width="1.81822" height="10.7489" fill="#CD9A4D"/>
<rect x="19.376" y="37.667" width="1.97399" height="13.8179" fill="#CD9A4D"/>
<rect x="23.1147" y="35.0352" width="1.97399" height="16.4499" fill="#CD9A4D"/>
<rect x="26.8535" y="32.4033" width="1.97399" height="19.0819" fill="#CD9A4D"/>
<rect x="30.5923" y="29.7715" width="1.97399" height="21.7139" fill="#CD9A4D"/>
<rect x="34.3311" y="27.1387" width="1.97399" height="24.3459" fill="#CD9A4D"/>
<path d="M2.39551 33.9547C2.39551 17.5058 6.97265 11.7076 20.2642 2.99609C34.1059 12.4344 38.198 19.1875 38.5485 33.9547V53.0008H2.39551V33.9547Z" stroke="#24513D" stroke-width="3.46293"/>
<path d="M18.3726 29.6676V12.8887C17.9233 12.9085 17.7431 13.0406 17.6562 13.4314C17.6562 13.7788 17.6696 13.9588 18.0687 14.1913V15.0597C17.7843 15.0732 17.6766 15.1339 17.6562 15.4287C17.6562 15.711 17.7214 15.8195 18.0687 15.9063C14.1321 19.0152 13.2038 20.8282 14.3346 24.2212H12.2288V26.631C13.2055 27.138 13.0972 28.802 13.0972 28.802V32.5795L18.3726 29.6676Z" fill="#24513D"/>
<path d="M18.3665 29.647L18.2393 12.8658C18.6884 12.8904 18.8672 13.0244 18.95 13.4161C18.9463 13.7634 18.9311 13.9433 18.5295 14.1716L18.5204 15.0399C18.8046 15.0565 18.9116 15.1183 18.9289 15.4133C18.926 15.6955 18.8597 15.8034 18.5114 15.8865C22.4151 19.0367 23.3242 20.8594 22.1578 24.2403L22.1212 27.7125L18.3665 29.647Z" fill="#24513D"/>
<mask id="path-11-outside-1_523_93" maskUnits="userSpaceOnUse" x="49.554" y="10.6094" width="88" height="23" fill="black">
<rect fill="white" x="49.554" y="10.6094" width="88" height="23"/>
<path d="M63.5142 11.4352L63.3841 13.8583C60.5001 13.7282 57.2313 13.6632 53.5776 13.6632C53.7077 15.4629 53.7727 17.9457 53.7727 21.1116C56.3206 21.1116 58.7979 21.0682 61.2048 20.9815V23.3396C58.8847 23.2528 56.4073 23.2095 53.7727 23.2095C53.7727 27.4486 53.8324 30.5819 53.9516 32.6094H50.9918C51.1436 29.2484 51.2195 25.5405 51.2195 21.4856C51.2195 17.6693 51.1436 14.3191 50.9918 11.4352H63.5142ZM84.5576 32.6094H81.1262C81.1262 31.883 80.4431 29.6008 79.077 25.7627H69.6934C68.349 29.5465 67.6768 31.8288 67.6768 32.6094H64.3917C64.3917 32.2082 65.7903 28.7442 68.5875 22.2174C71.3847 15.6798 72.7833 12.0857 72.7833 11.4352H76.5563C76.5563 12.0749 77.8898 15.6147 80.557 22.0548C83.2241 28.4949 84.5576 32.0131 84.5576 32.6094ZM78.3289 23.6323C75.7811 17.2681 74.5072 13.8854 74.5072 13.4843H74.3283C74.3283 13.8204 73.011 17.2031 70.3764 23.6323H78.3289ZM104.495 32.6094H101.356C100.316 29.4978 99.5567 27.4378 99.0797 26.4295C98.4725 25.161 97.7841 24.3424 97.0143 23.9738C96.4071 23.6811 95.3175 23.5347 93.7454 23.5347C92.8239 23.5347 92.0053 23.5456 91.2898 23.5672C91.2898 27.0692 91.3548 30.0832 91.4849 32.6094H88.46C88.6227 29.2484 88.704 25.5405 88.704 21.4856C88.704 17.6693 88.6227 14.3191 88.46 11.4352H90.7531C91.241 11.4352 91.859 11.4189 92.6071 11.3864C93.3551 11.3539 94.2117 11.3376 95.1766 11.3376C99.9253 11.3376 102.3 12.9747 102.3 16.249C102.3 18.9703 100.966 20.8839 98.299 21.9898V22.1524C99.4916 22.5102 100.457 23.3396 101.194 24.6406C101.812 25.7248 102.912 28.381 104.495 32.6094ZM99.5188 17.3548C99.5188 14.7745 97.7732 13.4843 94.2821 13.4843C93.0353 13.4843 91.9891 13.5548 91.1434 13.6957C91.2193 15.5822 91.2572 18.1463 91.2572 21.388C91.9078 21.4097 92.5312 21.4206 93.1275 21.4206C97.3883 21.4206 99.5188 20.0653 99.5188 17.3548ZM112.382 32.6094H109.292C109.455 29.0966 109.536 25.3887 109.536 21.4856C109.536 17.6476 109.455 14.2974 109.292 11.4352H112.382C112.23 14.395 112.154 17.7452 112.154 21.4856C112.154 25.4104 112.23 29.1183 112.382 32.6094ZM135.897 21.2579C135.897 24.337 134.911 27.0366 132.938 29.3568C130.975 31.677 128.265 32.8371 124.806 32.8371C123.679 32.8371 121.798 32.7612 119.163 32.6094C119.326 29.2484 119.407 25.5405 119.407 21.4856C119.407 17.6693 119.326 14.3191 119.163 11.4352H120.952C121.386 11.4352 122.047 11.4189 122.936 11.3864C123.825 11.3539 124.41 11.3376 124.692 11.3376C128.519 11.3376 131.344 12.2808 133.165 14.1673C134.987 16.043 135.897 18.4065 135.897 21.2579ZM133.068 21.9898C133.068 19.5829 132.298 17.5717 130.758 15.9562C129.23 14.3408 126.861 13.5331 123.651 13.5331C123.196 13.5331 122.573 13.5873 121.781 13.6957C121.868 16.2219 121.911 18.8185 121.911 21.4856C121.911 24.4129 121.971 27.3836 122.09 30.3976C122.958 30.5711 123.792 30.6578 124.595 30.6578C127.457 30.6578 129.582 29.8122 130.97 28.1208C132.368 26.4187 133.068 24.375 133.068 21.9898Z"/>
</mask>
<path d="M63.5142 11.4352L63.3841 13.8583C60.5001 13.7282 57.2313 13.6632 53.5776 13.6632C53.7077 15.4629 53.7727 17.9457 53.7727 21.1116C56.3206 21.1116 58.7979 21.0682 61.2048 20.9815V23.3396C58.8847 23.2528 56.4073 23.2095 53.7727 23.2095C53.7727 27.4486 53.8324 30.5819 53.9516 32.6094H50.9918C51.1436 29.2484 51.2195 25.5405 51.2195 21.4856C51.2195 17.6693 51.1436 14.3191 50.9918 11.4352H63.5142ZM84.5576 32.6094H81.1262C81.1262 31.883 80.4431 29.6008 79.077 25.7627H69.6934C68.349 29.5465 67.6768 31.8288 67.6768 32.6094H64.3917C64.3917 32.2082 65.7903 28.7442 68.5875 22.2174C71.3847 15.6798 72.7833 12.0857 72.7833 11.4352H76.5563C76.5563 12.0749 77.8898 15.6147 80.557 22.0548C83.2241 28.4949 84.5576 32.0131 84.5576 32.6094ZM78.3289 23.6323C75.7811 17.2681 74.5072 13.8854 74.5072 13.4843H74.3283C74.3283 13.8204 73.011 17.2031 70.3764 23.6323H78.3289ZM104.495 32.6094H101.356C100.316 29.4978 99.5567 27.4378 99.0797 26.4295C98.4725 25.161 97.7841 24.3424 97.0143 23.9738C96.4071 23.6811 95.3175 23.5347 93.7454 23.5347C92.8239 23.5347 92.0053 23.5456 91.2898 23.5672C91.2898 27.0692 91.3548 30.0832 91.4849 32.6094H88.46C88.6227 29.2484 88.704 25.5405 88.704 21.4856C88.704 17.6693 88.6227 14.3191 88.46 11.4352H90.7531C91.241 11.4352 91.859 11.4189 92.6071 11.3864C93.3551 11.3539 94.2117 11.3376 95.1766 11.3376C99.9253 11.3376 102.3 12.9747 102.3 16.249C102.3 18.9703 100.966 20.8839 98.299 21.9898V22.1524C99.4916 22.5102 100.457 23.3396 101.194 24.6406C101.812 25.7248 102.912 28.381 104.495 32.6094ZM99.5188 17.3548C99.5188 14.7745 97.7732 13.4843 94.2821 13.4843C93.0353 13.4843 91.9891 13.5548 91.1434 13.6957C91.2193 15.5822 91.2572 18.1463 91.2572 21.388C91.9078 21.4097 92.5312 21.4206 93.1275 21.4206C97.3883 21.4206 99.5188 20.0653 99.5188 17.3548ZM112.382 32.6094H109.292C109.455 29.0966 109.536 25.3887 109.536 21.4856C109.536 17.6476 109.455 14.2974 109.292 11.4352H112.382C112.23 14.395 112.154 17.7452 112.154 21.4856C112.154 25.4104 112.23 29.1183 112.382 32.6094ZM135.897 21.2579C135.897 24.337 134.911 27.0366 132.938 29.3568C130.975 31.677 128.265 32.8371 124.806 32.8371C123.679 32.8371 121.798 32.7612 119.163 32.6094C119.326 29.2484 119.407 25.5405 119.407 21.4856C119.407 17.6693 119.326 14.3191 119.163 11.4352H120.952C121.386 11.4352 122.047 11.4189 122.936 11.3864C123.825 11.3539 124.41 11.3376 124.692 11.3376C128.519 11.3376 131.344 12.2808 133.165 14.1673C134.987 16.043 135.897 18.4065 135.897 21.2579ZM133.068 21.9898C133.068 19.5829 132.298 17.5717 130.758 15.9562C129.23 14.3408 126.861 13.5331 123.651 13.5331C123.196 13.5331 122.573 13.5873 121.781 13.6957C121.868 16.2219 121.911 18.8185 121.911 21.4856C121.911 24.4129 121.971 27.3836 122.09 30.3976C122.958 30.5711 123.792 30.6578 124.595 30.6578C127.457 30.6578 129.582 29.8122 130.97 28.1208C132.368 26.4187 133.068 24.375 133.068 21.9898Z" fill="#24513D"/>
<path d="M63.5142 11.4352L64.2305 11.4736L64.271 10.7178H63.5142V11.4352ZM63.3841 13.8583L63.3517 14.5749L64.0622 14.607L64.1004 13.8968L63.3841 13.8583ZM53.5776 13.6632V12.9459H52.8065L52.8621 13.7149L53.5776 13.6632ZM53.7727 21.1116H53.0554V21.8289H53.7727V21.1116ZM61.2048 20.9815H61.9222V20.2378L61.179 20.2646L61.2048 20.9815ZM61.2048 23.3396L61.178 24.0564L61.9222 24.0842V23.3396H61.2048ZM53.7727 23.2095V22.4921H53.0554V23.2095H53.7727ZM53.9516 32.6094V33.3267H54.7124L54.6677 32.5673L53.9516 32.6094ZM50.9918 32.6094L50.2752 32.577L50.2413 33.3267H50.9918V32.6094ZM50.9918 11.4352V10.7178H50.2357L50.2755 11.4729L50.9918 11.4352ZM63.5142 11.4352L62.7979 11.3967L62.6678 13.8199L63.3841 13.8583L64.1004 13.8968L64.2305 11.4736L63.5142 11.4352ZM63.3841 13.8583L63.4164 13.1417C60.5193 13.011 57.2394 12.9459 53.5776 12.9459V13.6632V14.3805C57.2232 14.3805 60.4809 14.4454 63.3517 14.5749L63.3841 13.8583ZM53.5776 13.6632L52.8621 13.7149C52.9904 15.4893 53.0554 17.9522 53.0554 21.1116H53.7727H54.4901C54.4901 17.9392 54.425 15.4366 54.293 13.6115L53.5776 13.6632ZM53.7727 21.1116V21.8289C56.3287 21.8289 58.8147 21.7854 61.2307 21.6983L61.2048 20.9815L61.179 20.2646C58.7812 20.351 56.3125 20.3942 53.7727 20.3942V21.1116ZM61.2048 20.9815H60.4875V23.3396H61.2048H61.9222V20.9815H61.2048ZM61.2048 23.3396L61.2316 22.6227C58.9015 22.5356 56.4151 22.4921 53.7727 22.4921V23.2095V23.9268C56.3995 23.9268 58.8679 23.97 61.178 24.0564L61.2048 23.3396ZM53.7727 23.2095H53.0554C53.0554 27.451 53.115 30.6019 53.2355 32.6515L53.9516 32.6094L54.6677 32.5673C54.5498 30.562 54.4901 27.4462 54.4901 23.2095H53.7727ZM53.9516 32.6094V31.892H50.9918V32.6094V33.3267H53.9516V32.6094ZM50.9918 32.6094L51.7084 32.6417C51.8608 29.2681 51.9368 25.5492 51.9368 21.4856H51.2195H50.5021C50.5021 25.5318 50.4264 29.2287 50.2752 32.577L50.9918 32.6094ZM51.2195 21.4856H51.9368C51.9368 17.6604 51.8608 14.2972 51.7081 11.3975L50.9918 11.4352L50.2755 11.4729C50.4264 14.341 50.5021 17.6781 50.5021 21.4856H51.2195ZM50.9918 11.4352V12.1525H63.5142V11.4352V10.7178H50.9918V11.4352ZM84.5576 32.6094V33.3267H85.2749V32.6094H84.5576ZM81.1262 32.6094H80.4088V33.3267H81.1262V32.6094ZM79.077 25.7627L79.7528 25.5222L79.5831 25.0454H79.077V25.7627ZM69.6934 25.7627V25.0454H69.187L69.0175 25.5226L69.6934 25.7627ZM67.6768 32.6094V33.3267H68.3941V32.6094H67.6768ZM64.3917 32.6094H63.6744V33.3267H64.3917V32.6094ZM68.5875 22.2174L69.2468 22.5L69.247 22.4996L68.5875 22.2174ZM72.7833 11.4352V10.7178H72.066V11.4352H72.7833ZM76.5563 11.4352H77.2736V10.7178H76.5563V11.4352ZM78.3289 23.6323V24.3496H79.3888L78.9949 23.3657L78.3289 23.6323ZM74.5072 13.4843H75.2245V12.767H74.5072V13.4843ZM74.3283 13.4843V12.767H73.611V13.4843H74.3283ZM70.3764 23.6323L69.7127 23.3603L69.3073 24.3496H70.3764V23.6323ZM84.5576 32.6094V31.892H81.1262V32.6094V33.3267H84.5576V32.6094ZM81.1262 32.6094H81.8435C81.8435 32.3425 81.7847 31.9976 81.6976 31.614C81.6073 31.2162 81.4743 30.7259 81.3011 30.1472C80.9545 28.9891 80.4375 27.4459 79.7528 25.5222L79.077 25.7627L78.4012 26.0033C79.0826 27.9176 79.5902 29.4345 79.9267 30.5586C80.095 31.121 80.2181 31.5774 80.2985 31.9317C80.3822 32.3002 80.4088 32.513 80.4088 32.6094H81.1262ZM79.077 25.7627V25.0454H69.6934V25.7627V26.4801H79.077V25.7627ZM69.6934 25.7627L69.0175 25.5226C68.3434 27.4197 67.8343 28.9502 67.4928 30.1096C67.1622 31.232 66.9595 32.0979 66.9595 32.6094H67.6768H68.3941C68.3941 32.3402 68.5275 31.6747 68.8691 30.5149C69.1998 29.392 69.699 27.8896 70.3693 26.0029L69.6934 25.7627ZM67.6768 32.6094V31.892H64.3917V32.6094V33.3267H67.6768V32.6094ZM64.3917 32.6094H65.109C65.109 32.6823 65.0951 32.6858 65.1444 32.5213C65.1826 32.394 65.243 32.2146 65.3285 31.9783C65.4989 31.5075 65.7573 30.8424 66.1058 29.9791C66.8022 28.2542 67.8488 25.7621 69.2468 22.5L68.5875 22.2174L67.9282 21.9349C66.529 25.1996 65.4777 27.7028 64.7755 29.442C64.4247 30.3107 64.1587 30.9947 63.9794 31.4902C63.8901 31.7371 63.8194 31.945 63.7701 32.1095C63.732 32.2366 63.6744 32.4362 63.6744 32.6094H64.3917ZM68.5875 22.2174L69.247 22.4996C70.6466 19.2285 71.6992 16.6869 72.4029 14.8788C72.7543 13.9756 73.0218 13.2476 73.2024 12.6995C73.2925 12.4259 73.3638 12.1888 73.4133 11.9925C73.4585 11.8134 73.5007 11.612 73.5007 11.4352H72.7833H72.066C72.066 11.421 72.0645 11.4742 72.0222 11.6417C71.9843 11.792 71.9245 11.9935 71.8398 12.2505C71.6707 12.7635 71.4137 13.4646 71.0659 14.3585C70.3709 16.1444 69.3256 18.6688 67.928 21.9353L68.5875 22.2174ZM72.7833 11.4352V12.1525H76.5563V11.4352V10.7178H72.7833V11.4352ZM76.5563 11.4352H75.839C75.839 11.6077 75.8789 11.8049 75.922 11.9812C75.9691 12.1742 76.037 12.4075 76.1229 12.6768C76.2951 13.2163 76.5501 13.9332 76.8852 14.8227C77.5561 16.6036 78.5597 19.107 79.8942 22.3293L80.557 22.0548L81.2197 21.7803C79.8871 18.5626 78.8904 16.076 78.2277 14.317C77.8961 13.4366 77.651 12.746 77.4897 12.2407C77.409 11.9876 77.3519 11.789 77.3157 11.6408C77.2754 11.4759 77.2736 11.4225 77.2736 11.4352H76.5563ZM80.557 22.0548L79.8942 22.3293C81.2269 25.5472 82.2238 28.0289 82.8867 29.7778C83.2185 30.6531 83.4638 31.3375 83.6252 31.8355C83.7061 32.085 83.7632 32.2796 83.7994 32.4236C83.8403 32.5866 83.8403 32.6314 83.8403 32.6094H84.5576H85.2749C85.2749 32.4383 85.2332 32.2427 85.1908 32.074C85.1436 31.8863 85.0758 31.6579 84.99 31.3931C84.818 30.8625 84.5632 30.153 84.2282 29.2693C83.5576 27.4999 82.5541 25.0025 81.2197 21.7803L80.557 22.0548ZM78.3289 23.6323L78.9949 23.3657C77.7215 20.1849 76.7682 17.7536 76.1339 16.0693C75.8165 15.2264 75.5811 14.5763 75.4259 14.1153C75.348 13.8841 75.2929 13.7079 75.2581 13.5825C75.2139 13.4235 75.2245 13.4206 75.2245 13.4843H74.5072H73.7898C73.7898 13.6483 73.8403 13.8389 73.8757 13.9665C73.9205 14.1277 73.9848 14.3314 74.0662 14.5731C74.2295 15.058 74.4718 15.7266 74.7913 16.575C75.4309 18.2733 76.3886 20.7155 77.663 23.8989L78.3289 23.6323ZM74.5072 13.4843V12.767H74.3283V13.4843V14.2016H74.5072V13.4843ZM74.3283 13.4843H73.611C73.611 13.4182 73.6227 13.3833 73.6137 13.4224C73.6083 13.446 73.5977 13.4862 73.5795 13.547C73.5432 13.6679 73.4859 13.8401 73.4051 14.0681C73.2442 14.5224 73.0003 15.1696 72.6719 16.0131C72.0156 17.6984 71.0295 20.1467 69.7127 23.3603L70.3764 23.6323L71.0402 23.9043C72.3579 20.6886 73.3478 18.231 74.0088 16.5337C74.3389 15.6858 74.5891 15.0224 74.7575 14.5471C74.8414 14.3103 74.9075 14.1129 74.9536 13.9593C74.9765 13.8829 74.9968 13.8097 75.012 13.7436C75.0236 13.6931 75.0456 13.5924 75.0456 13.4843H74.3283ZM70.3764 23.6323V24.3496H78.3289V23.6323V22.915H70.3764V23.6323ZM104.495 32.6094V33.3267H105.53L105.167 32.3579L104.495 32.6094ZM101.356 32.6094L100.676 32.8369L100.84 33.3267H101.356V32.6094ZM99.0797 26.4295L99.7281 26.1227L99.7267 26.1198L99.0797 26.4295ZM97.0143 23.9738L96.7027 24.62L96.7045 24.6208L97.0143 23.9738ZM91.2898 23.5672L91.268 22.8502L90.5724 22.8713V23.5672H91.2898ZM91.4849 32.6094V33.3267H92.2401L92.2013 32.5725L91.4849 32.6094ZM88.46 32.6094L87.7435 32.5747L87.7071 33.3267H88.46V32.6094ZM88.46 11.4352V10.7178H87.7011L87.7438 11.4756L88.46 11.4352ZM98.299 21.9898L98.0243 21.3271L97.5817 21.5106V21.9898H98.299ZM98.299 22.1524H97.5817V22.6861L98.0929 22.8395L98.299 22.1524ZM101.194 24.6406L100.57 24.9942L100.571 24.9958L101.194 24.6406ZM91.1434 13.6957L91.0255 12.9881L90.4012 13.0922L90.4266 13.7245L91.1434 13.6957ZM91.2572 21.388H90.5399V22.0818L91.2333 22.105L91.2572 21.388ZM104.495 32.6094V31.892H101.356V32.6094V33.3267H104.495V32.6094ZM101.356 32.6094L102.037 32.3818C100.998 29.2764 100.226 27.1759 99.7281 26.1227L99.0797 26.4295L98.4312 26.7363C98.887 27.6997 99.6333 29.7191 100.676 32.8369L101.356 32.6094ZM99.0797 26.4295L99.7267 26.1198C99.0911 24.7919 98.3104 23.7992 97.3241 23.3268L97.0143 23.9738L96.7045 24.6208C97.2577 24.8857 97.8539 25.5301 98.4326 26.7392L99.0797 26.4295ZM97.0143 23.9738L97.3258 23.3277C96.5571 22.9571 95.3183 22.8174 93.7454 22.8174V23.5347V24.2521C95.3167 24.2521 96.2571 24.4051 96.7027 24.62L97.0143 23.9738ZM93.7454 23.5347V22.8174C92.8186 22.8174 91.9925 22.8283 91.268 22.8502L91.2898 23.5672L91.3115 24.2843C92.0181 24.2628 92.8292 24.2521 93.7454 24.2521V23.5347ZM91.2898 23.5672H90.5724C90.5724 27.0772 90.6376 30.1042 90.7685 32.6463L91.4849 32.6094L92.2013 32.5725C92.072 30.0623 92.0071 27.0612 92.0071 23.5672H91.2898ZM91.4849 32.6094V31.892H88.46V32.6094V33.3267H91.4849V32.6094ZM88.46 32.6094L89.1765 32.644C89.3398 29.2695 89.4213 25.5498 89.4213 21.4856H88.704H87.9866C87.9866 25.5312 87.9055 29.2273 87.7435 32.5747L88.46 32.6094ZM88.704 21.4856H89.4213C89.4213 17.6598 89.3398 14.2956 89.1762 11.3948L88.46 11.4352L87.7438 11.4756C87.9055 14.3426 87.9866 17.6787 87.9866 21.4856H88.704ZM88.46 11.4352V12.1525H90.7531V11.4352V10.7178H88.46V11.4352ZM90.7531 11.4352V12.1525C91.2553 12.1525 91.8846 12.1358 92.6382 12.103L92.6071 11.3864L92.5759 10.6697C91.8333 10.702 91.2267 10.7178 90.7531 10.7178V11.4352ZM92.6071 11.3864L92.6382 12.103C93.3735 12.0711 94.2193 12.0549 95.1766 12.0549V11.3376V10.6203C94.204 10.6203 93.3368 10.6367 92.5759 10.6697L92.6071 11.3864ZM95.1766 11.3376V12.0549C97.4907 12.0549 99.0992 12.4579 100.112 13.156C101.076 13.8209 101.582 14.8107 101.582 16.249H102.3H103.017C103.017 14.413 102.336 12.9471 100.926 11.9749C99.5643 11.0359 97.6112 10.6203 95.1766 10.6203V11.3376ZM102.3 16.249H101.582C101.582 17.4881 101.281 18.4977 100.711 19.315C100.139 20.1354 99.2614 20.8142 98.0243 21.3271L98.299 21.9898L98.5738 22.6524C100.004 22.0595 101.126 21.2285 101.888 20.1353C102.652 19.0391 103.017 17.7311 103.017 16.249H102.3ZM98.299 21.9898H97.5817V22.1524H98.299H99.0164V21.9898H98.299ZM98.299 22.1524L98.0929 22.8395C99.0739 23.1338 99.9042 23.8197 100.57 24.9942L101.194 24.6406L101.818 24.2869C101.009 22.8594 99.9094 21.8866 98.5052 21.4653L98.299 22.1524ZM101.194 24.6406L100.571 24.9958C101.154 26.0197 102.234 28.616 103.823 32.8609L104.495 32.6094L105.167 32.3579C103.59 28.146 102.469 25.4299 101.817 24.2854L101.194 24.6406ZM99.5188 17.3548H100.236C100.236 15.8857 99.7276 14.6819 98.636 13.8751C97.5849 13.0982 96.095 12.767 94.2821 12.767V13.4843V14.2016C95.9603 14.2016 97.0887 14.5155 97.7832 15.0288C98.4372 15.5122 98.8014 16.2437 98.8014 17.3548H99.5188ZM94.2821 13.4843V12.767C93.0119 12.767 91.9233 12.8385 91.0255 12.9881L91.1434 13.6957L91.2613 14.4033C92.0549 14.271 93.0588 14.2016 94.2821 14.2016V13.4843ZM91.1434 13.6957L90.4266 13.7245C90.502 15.597 90.5399 18.1502 90.5399 21.388H91.2572H91.9746C91.9746 18.1424 91.9366 15.5674 91.8602 13.6669L91.1434 13.6957ZM91.2572 21.388L91.2333 22.105C91.8911 22.1269 92.5225 22.1379 93.1275 22.1379V21.4206V20.7032C92.5398 20.7032 91.9244 20.6925 91.2811 20.6711L91.2572 21.388ZM93.1275 21.4206V22.1379C95.3108 22.1379 97.0712 21.7948 98.306 21.0094C99.5957 20.1889 100.236 18.9338 100.236 17.3548H99.5188H98.8014C98.8014 18.4864 98.3766 19.2641 97.5359 19.7989C96.6402 20.3687 95.2049 20.7032 93.1275 20.7032V21.4206ZM112.382 32.6094V33.3267H113.131L113.099 32.5782L112.382 32.6094ZM109.292 32.6094L108.575 32.5762L108.541 33.3267H109.292V32.6094ZM109.292 11.4352V10.7178H108.533L108.576 11.4759L109.292 11.4352ZM112.382 11.4352L113.098 11.4719L113.137 10.7178H112.382V11.4352ZM112.382 32.6094V31.892H109.292V32.6094V33.3267H112.382V32.6094ZM109.292 32.6094L110.009 32.6425C110.172 29.1176 110.253 25.3986 110.253 21.4856H109.536H108.819C108.819 25.3788 108.738 29.0756 108.575 32.5762L109.292 32.6094ZM109.536 21.4856H110.253C110.253 17.6382 110.172 14.2739 110.008 11.3945L109.292 11.4352L108.576 11.4759C108.738 14.3209 108.819 17.6569 108.819 21.4856H109.536ZM109.292 11.4352V12.1525H112.382V11.4352V10.7178H109.292V11.4352ZM112.382 11.4352L111.666 11.3984C111.513 14.3732 111.437 17.7359 111.437 21.4856H112.154H112.872C112.872 17.7544 112.947 14.4168 113.098 11.4719L112.382 11.4352ZM112.154 21.4856H111.437C111.437 25.4195 111.513 29.1379 111.665 32.6405L112.382 32.6094L113.099 32.5782C112.947 29.0987 112.872 25.4012 112.872 21.4856H112.154ZM132.938 29.3568L132.391 28.8921L132.39 28.8936L132.938 29.3568ZM119.163 32.6094L118.446 32.5747L118.412 33.2846L119.122 33.3255L119.163 32.6094ZM119.163 11.4352V10.7178H118.404L118.447 11.4756L119.163 11.4352ZM133.165 14.1673L132.649 14.6656L132.651 14.6671L133.165 14.1673ZM130.758 15.9562L130.237 16.4493L130.239 16.4511L130.758 15.9562ZM121.781 13.6957L121.684 12.985L121.042 13.0729L121.064 13.7203L121.781 13.6957ZM122.09 30.3976L121.373 30.426L121.396 30.9903L121.95 31.101L122.09 30.3976ZM130.97 28.1208L130.416 27.6654L130.415 27.6658L130.97 28.1208ZM135.897 21.2579H135.18C135.18 24.1688 134.253 26.7032 132.391 28.8921L132.938 29.3568L133.484 29.8215C135.569 27.3701 136.615 24.5053 136.615 21.2579H135.897ZM132.938 29.3568L132.39 28.8936C130.584 31.0292 128.086 32.1197 124.806 32.1197V32.8371V33.5544C128.443 33.5544 131.367 32.3247 133.485 29.8201L132.938 29.3568ZM124.806 32.8371V32.1197C123.701 32.1197 121.838 32.045 119.204 31.8932L119.163 32.6094L119.122 33.3255C121.757 33.4773 123.656 33.5544 124.806 33.5544V32.8371ZM119.163 32.6094L119.879 32.644C120.043 29.2695 120.124 25.5498 120.124 21.4856H119.407H118.69C118.69 25.5312 118.608 29.2273 118.446 32.5747L119.163 32.6094ZM119.407 21.4856H120.124C120.124 17.6598 120.043 14.2956 119.879 11.3948L119.163 11.4352L118.447 11.4756C118.608 14.3426 118.69 17.6787 118.69 21.4856H119.407ZM119.163 11.4352V12.1525H120.952V11.4352V10.7178H119.163V11.4352ZM120.952 11.4352V12.1525C121.399 12.1525 122.071 12.1358 122.962 12.1032L122.936 11.3864L122.91 10.6695C122.022 10.702 121.372 10.7178 120.952 10.7178V11.4352ZM122.936 11.3864L122.962 12.1032C123.854 12.0706 124.426 12.0549 124.692 12.0549V11.3376V10.6203C124.395 10.6203 123.796 10.6371 122.91 10.6695L122.936 11.3864ZM124.692 11.3376V12.0549C128.415 12.0549 131.015 12.9727 132.649 14.6656L133.165 14.1673L133.681 13.6691C131.673 11.589 128.624 10.6203 124.692 10.6203V11.3376ZM133.165 14.1673L132.651 14.6671C134.33 16.3961 135.18 18.5746 135.18 21.2579H135.897H136.615C136.615 18.2384 135.644 15.6898 133.68 13.6676L133.165 14.1673ZM133.068 21.9898H133.785C133.785 19.4145 132.955 17.2213 131.278 15.4614L130.758 15.9562L130.239 16.4511C131.641 17.9221 132.35 19.7513 132.35 21.9898H133.068ZM130.758 15.9562L131.279 15.4632C129.565 13.6511 126.969 12.8158 123.651 12.8158V13.5331V14.2504C126.752 14.2504 128.895 15.0306 130.237 16.4493L130.758 15.9562ZM123.651 13.5331V12.8158C123.148 12.8158 122.487 12.8749 121.684 12.985L121.781 13.6957L121.879 14.4064C122.658 14.2996 123.244 14.2504 123.651 14.2504V13.5331ZM121.781 13.6957L121.064 13.7203C121.151 16.2379 121.194 18.8263 121.194 21.4856H121.911H122.629C122.629 18.8107 122.585 16.2059 122.498 13.6711L121.781 13.6957ZM121.911 21.4856H121.194C121.194 24.4227 121.254 27.4028 121.373 30.426L122.09 30.3976L122.807 30.3693C122.688 27.3644 122.629 24.4032 122.629 21.4856H121.911ZM122.09 30.3976L121.95 31.101C122.859 31.2828 123.741 31.3752 124.595 31.3752V30.6578V29.9405C123.844 29.9405 123.057 29.8594 122.231 29.6942L122.09 30.3976ZM124.595 30.6578V31.3752C127.601 31.3752 129.961 30.4814 131.524 28.5759L130.97 28.1208L130.415 27.6658C129.203 29.143 127.313 29.9405 124.595 29.9405V30.6578ZM130.97 28.1208L131.524 28.5762C133.037 26.7348 133.785 24.5263 133.785 21.9898H133.068H132.35C132.35 24.2236 131.7 26.1025 130.416 27.6654L130.97 28.1208Z" fill="#24513D" mask="url(#path-11-outside-1_523_93)"/>
<path d="M59.0481 48.9016L58.9266 50.2933C58.1607 50.5237 57.3263 50.6389 56.4234 50.6389C54.2814 50.6389 52.6718 50.0536 51.5945 48.8829C50.5173 47.7061 49.9786 46.2708 49.9786 44.5771C49.9786 42.8024 50.5795 41.2737 51.7813 39.991C52.9831 38.702 54.599 38.0575 56.6289 38.0575C57.1893 38.0575 57.7809 38.1416 58.4036 38.3097L58.1421 39.7948C57.426 39.5707 56.7877 39.4586 56.2273 39.4586C54.7204 39.4586 53.5778 39.9256 52.7994 40.8596C52.0211 41.7937 51.6319 42.9363 51.6319 44.2875C51.6319 45.6636 52.0802 46.8436 52.9769 47.8275C53.8735 48.8113 55.1127 49.3032 56.6943 49.3032C57.2983 49.3032 58.0829 49.1694 59.0481 48.9016ZM74.3164 50.3867H72.3456C72.3456 49.9695 71.9533 48.6588 71.1688 46.4545H65.7794C65.0073 48.6276 64.6212 49.9384 64.6212 50.3867H62.7345C62.7345 50.1563 63.5377 48.1668 65.1443 44.4183C66.7508 40.6635 67.5541 38.5993 67.5541 38.2257H69.721C69.721 38.5931 70.4869 40.6261 72.0187 44.3249C73.5505 48.0236 74.3164 50.0442 74.3164 50.3867ZM70.7391 45.2309C69.2758 41.5757 68.5441 39.6329 68.5441 39.4025H68.4414C68.4414 39.5956 67.6848 41.5384 66.1717 45.2309H70.7391ZM87.4365 41.2426C87.4365 42.6623 86.8979 43.724 85.8207 44.4276C84.7434 45.1313 83.2957 45.4831 81.4774 45.4831C81.247 45.4831 81.0478 45.4768 80.8797 45.4644C80.8797 46.8218 80.9295 48.4626 81.0291 50.3867H79.2358C79.3292 48.6183 79.3759 46.4887 79.3759 43.998C79.3759 41.8559 79.3292 39.9318 79.2358 38.2257H80.5714C80.7147 38.2257 81.1225 38.2163 81.795 38.1976C82.4737 38.179 83.0497 38.1696 83.523 38.1696C84.7185 38.1696 85.6681 38.4436 86.3718 38.9916C87.0816 39.5333 87.4365 40.2836 87.4365 41.2426ZM85.8767 41.7843C85.8767 40.184 84.7839 39.3839 82.5983 39.3839C82.0628 39.3839 81.4619 39.4306 80.7956 39.524C80.8392 40.5389 80.861 42.1206 80.861 44.2688C81.0789 44.2813 81.3467 44.2875 81.6642 44.2875C84.4726 44.2875 85.8767 43.4531 85.8767 41.7843ZM94.6443 50.3867H92.8696C92.963 48.3692 93.0097 46.2396 93.0097 43.998C93.0097 41.7937 92.963 39.8696 92.8696 38.2257H94.6443C94.5571 39.9256 94.5135 41.8497 94.5135 43.998C94.5135 46.2521 94.5571 48.3817 94.6443 50.3867ZM108.997 38.2257L108.951 39.5426C107.718 39.4804 106.444 39.4492 105.13 39.4492C105.118 40.6448 105.112 42.161 105.112 43.998C105.112 46.0279 105.143 48.1575 105.205 50.3867H103.496C103.571 48.2634 103.608 46.1338 103.608 43.998C103.608 42.1859 103.589 40.6697 103.552 39.4492C102.63 39.4492 101.335 39.4866 99.6663 39.5613L99.713 38.2257H108.997ZM123.565 50.3867H121.594C121.594 49.9695 121.202 48.6588 120.417 46.4545H115.028C114.256 48.6276 113.87 49.9384 113.87 50.3867H111.983C111.983 50.1563 112.786 48.1668 114.393 44.4183C116 40.6635 116.803 38.5993 116.803 38.2257H118.97C118.97 38.5931 119.736 40.6261 121.267 44.3249C122.799 48.0236 123.565 50.0442 123.565 50.3867ZM119.988 45.2309C118.524 41.5757 117.793 39.6329 117.793 39.4025H117.69C117.69 39.5956 116.934 41.5384 115.42 45.2309H119.988ZM135.891 49.0137L135.835 50.3867H128.484C128.559 48.8487 128.597 46.7191 128.597 43.998C128.597 41.6567 128.559 39.7326 128.484 38.2257H130.222C130.147 39.4835 130.11 41.4076 130.11 43.998C130.11 46.1275 130.075 47.8337 130.007 49.1164C131.875 49.1164 133.836 49.0822 135.891 49.0137Z" fill="#24513D"/>
</svg>
