<svg width="158" height="83" viewBox="0 0 158 83" fill="none" xmlns="http://www.w3.org/2000/svg">
<path d="M38.1054 40.362L54.8745 33.0898L55.8745 79.0898H18.8745V50.4672L38.1054 40.362Z" fill="white"/>
<rect x="23.2913" y="61.4448" width="2.76327" height="16.3358" fill="#24513D"/>
<rect x="28.7366" y="56.7803" width="3" height="21" fill="#24513D"/>
<rect x="34.4185" y="52.7803" width="3" height="25" fill="#24513D"/>
<rect x="40.1006" y="48.7803" width="3" height="29" fill="#24513D"/>
<rect x="45.7825" y="44.7803" width="3" height="33" fill="#24513D"/>
<rect x="51.4646" y="40.7803" width="3" height="37" fill="#24513D"/>
<path d="M2.93018 51.1396C2.93018 26.1411 9.88635 17.3293 30.0864 4.08984C51.1226 18.4339 57.3416 28.6969 57.8742 51.1396V80.0852H2.93018V51.1396Z" stroke="white" stroke-width="5.26283"/>
<path d="M27.2118 44.625V19.125C26.5289 19.1552 26.255 19.356 26.123 19.9498C26.123 20.4777 26.1433 20.7513 26.7499 21.1046V22.4244C26.3177 22.445 26.154 22.5372 26.123 22.9853C26.123 23.4142 26.222 23.5792 26.7499 23.7111C20.7671 28.4358 19.3563 31.1913 21.0749 36.3478H17.8745V40.0101C19.3589 40.7807 19.1943 43.3095 19.1943 43.3095V49.0504L27.2118 44.625Z" fill="white"/>
<path d="M27.2023 44.5933L27.0089 19.0898C27.6914 19.1272 27.9633 19.3308 28.089 19.9261C28.0834 20.454 28.0603 20.7273 27.45 21.0742L27.4361 22.3939C27.868 22.419 28.0307 22.513 28.057 22.9614C28.0525 23.3903 27.9518 23.5542 27.4225 23.6806C33.3552 28.468 34.7369 31.2382 32.9641 36.3763L32.9085 41.6532L27.2023 44.5933Z" fill="white"/>
<mask id="path-11-outside-1_30_184" maskUnits="userSpaceOnUse" x="68.8796" y="24.6987" width="88" height="23" fill="black">
<rect fill="white" x="68.8796" y="24.6987" width="88" height="23"/>
<path d="M82.8399 25.5245L82.7097 27.9477C79.8258 27.8176 76.557 27.7525 72.9033 27.7525C73.0334 29.5523 73.0984 32.0351 73.0984 35.2009C75.6463 35.2009 78.1236 35.1575 80.5305 35.0708V37.4289C78.2104 37.3422 75.733 37.2988 73.0984 37.2988C73.0984 41.538 73.1581 44.6713 73.2773 46.6987H70.3175C70.4693 43.3377 70.5452 39.6298 70.5452 35.575C70.5452 31.7586 70.4693 28.4085 70.3175 25.5245H82.8399ZM103.883 46.6987H100.452C100.452 45.9723 99.7688 43.6901 98.4027 39.8521H89.0191C87.6747 43.6359 87.0025 45.9181 87.0025 46.6987H83.7174C83.7174 46.2976 85.116 42.8336 87.9132 36.3068C90.7104 29.7691 92.109 26.175 92.109 25.5245H95.882C95.882 26.1642 97.2155 29.7041 99.8826 36.1442C102.55 42.5842 103.883 46.1024 103.883 46.6987ZM97.6546 37.7217C95.1068 31.3575 93.8329 27.9748 93.8329 27.5737H93.654C93.654 27.9098 92.3367 31.2924 89.7021 37.7217H97.6546ZM123.821 46.6987H120.682C119.641 43.5871 118.882 41.5272 118.405 40.5189C117.798 39.2504 117.11 38.4318 116.34 38.0632C115.733 37.7704 114.643 37.6241 113.071 37.6241C112.15 37.6241 111.331 37.6349 110.615 37.6566C110.615 41.1585 110.68 44.1726 110.811 46.6987H107.786C107.948 43.3377 108.03 39.6298 108.03 35.575C108.03 31.7586 107.948 28.4085 107.786 25.5245H110.079C110.567 25.5245 111.185 25.5083 111.933 25.4757C112.681 25.4432 113.537 25.427 114.502 25.427C119.251 25.427 121.625 27.0641 121.625 30.3383C121.625 33.0596 120.292 34.9732 117.625 36.0791V36.2417C118.817 36.5995 119.782 37.4289 120.52 38.7299C121.137 39.8141 122.238 42.4704 123.821 46.6987ZM118.844 31.4442C118.844 28.8638 117.099 27.5737 113.608 27.5737C112.361 27.5737 111.315 27.6441 110.469 27.7851C110.545 29.6716 110.583 32.2357 110.583 35.4774C111.233 35.4991 111.857 35.5099 112.453 35.5099C116.714 35.5099 118.844 34.1547 118.844 31.4442ZM131.708 46.6987H128.618C128.78 43.186 128.862 39.478 128.862 35.575C128.862 31.7369 128.78 28.3868 128.618 25.5245H131.708C131.556 28.4844 131.48 31.8345 131.48 35.575C131.48 39.4997 131.556 43.2076 131.708 46.6987ZM155.223 35.3473C155.223 38.4264 154.236 41.126 152.263 43.4462C150.301 45.7663 147.59 46.9264 144.132 46.9264C143.004 46.9264 141.123 46.8505 138.489 46.6987C138.651 43.3377 138.733 39.6298 138.733 35.575C138.733 31.7586 138.651 28.4085 138.489 25.5245H140.278C140.711 25.5245 141.373 25.5083 142.262 25.4757C143.151 25.4432 143.736 25.427 144.018 25.427C147.845 25.427 150.669 26.3702 152.491 28.2567C154.312 30.1323 155.223 32.4959 155.223 35.3473ZM152.393 36.0791C152.393 33.6722 151.624 31.661 150.084 30.0456C148.555 28.4302 146.186 27.6224 142.977 27.6224C142.522 27.6224 141.898 27.6766 141.107 27.7851C141.194 30.3112 141.237 32.9079 141.237 35.575C141.237 38.5023 141.297 41.4729 141.416 44.487C142.283 44.6605 143.118 44.7472 143.92 44.7472C146.783 44.7472 148.908 43.9015 150.295 42.2102C151.694 40.508 152.393 38.4643 152.393 36.0791Z"/>
</mask>
<path d="M82.8399 25.5245L82.7097 27.9477C79.8258 27.8176 76.557 27.7525 72.9033 27.7525C73.0334 29.5523 73.0984 32.0351 73.0984 35.2009C75.6463 35.2009 78.1236 35.1575 80.5305 35.0708V37.4289C78.2104 37.3422 75.733 37.2988 73.0984 37.2988C73.0984 41.538 73.1581 44.6713 73.2773 46.6987H70.3175C70.4693 43.3377 70.5452 39.6298 70.5452 35.575C70.5452 31.7586 70.4693 28.4085 70.3175 25.5245H82.8399ZM103.883 46.6987H100.452C100.452 45.9723 99.7688 43.6901 98.4027 39.8521H89.0191C87.6747 43.6359 87.0025 45.9181 87.0025 46.6987H83.7174C83.7174 46.2976 85.116 42.8336 87.9132 36.3068C90.7104 29.7691 92.109 26.175 92.109 25.5245H95.882C95.882 26.1642 97.2155 29.7041 99.8826 36.1442C102.55 42.5842 103.883 46.1024 103.883 46.6987ZM97.6546 37.7217C95.1068 31.3575 93.8329 27.9748 93.8329 27.5737H93.654C93.654 27.9098 92.3367 31.2924 89.7021 37.7217H97.6546ZM123.821 46.6987H120.682C119.641 43.5871 118.882 41.5272 118.405 40.5189C117.798 39.2504 117.11 38.4318 116.34 38.0632C115.733 37.7704 114.643 37.6241 113.071 37.6241C112.15 37.6241 111.331 37.6349 110.615 37.6566C110.615 41.1585 110.68 44.1726 110.811 46.6987H107.786C107.948 43.3377 108.03 39.6298 108.03 35.575C108.03 31.7586 107.948 28.4085 107.786 25.5245H110.079C110.567 25.5245 111.185 25.5083 111.933 25.4757C112.681 25.4432 113.537 25.427 114.502 25.427C119.251 25.427 121.625 27.0641 121.625 30.3383C121.625 33.0596 120.292 34.9732 117.625 36.0791V36.2417C118.817 36.5995 119.782 37.4289 120.52 38.7299C121.137 39.8141 122.238 42.4704 123.821 46.6987ZM118.844 31.4442C118.844 28.8638 117.099 27.5737 113.608 27.5737C112.361 27.5737 111.315 27.6441 110.469 27.7851C110.545 29.6716 110.583 32.2357 110.583 35.4774C111.233 35.4991 111.857 35.5099 112.453 35.5099C116.714 35.5099 118.844 34.1547 118.844 31.4442ZM131.708 46.6987H128.618C128.78 43.186 128.862 39.478 128.862 35.575C128.862 31.7369 128.78 28.3868 128.618 25.5245H131.708C131.556 28.4844 131.48 31.8345 131.48 35.575C131.48 39.4997 131.556 43.2076 131.708 46.6987ZM155.223 35.3473C155.223 38.4264 154.236 41.126 152.263 43.4462C150.301 45.7663 147.59 46.9264 144.132 46.9264C143.004 46.9264 141.123 46.8505 138.489 46.6987C138.651 43.3377 138.733 39.6298 138.733 35.575C138.733 31.7586 138.651 28.4085 138.489 25.5245H140.278C140.711 25.5245 141.373 25.5083 142.262 25.4757C143.151 25.4432 143.736 25.427 144.018 25.427C147.845 25.427 150.669 26.3702 152.491 28.2567C154.312 30.1323 155.223 32.4959 155.223 35.3473ZM152.393 36.0791C152.393 33.6722 151.624 31.661 150.084 30.0456C148.555 28.4302 146.186 27.6224 142.977 27.6224C142.522 27.6224 141.898 27.6766 141.107 27.7851C141.194 30.3112 141.237 32.9079 141.237 35.575C141.237 38.5023 141.297 41.4729 141.416 44.487C142.283 44.6605 143.118 44.7472 143.92 44.7472C146.783 44.7472 148.908 43.9015 150.295 42.2102C151.694 40.508 152.393 38.4643 152.393 36.0791Z" fill="white"/>
<path d="M82.8399 25.5245L83.5562 25.563L83.5967 24.8072H82.8399V25.5245ZM82.7097 27.9477L82.6774 28.6643L83.3879 28.6964L83.4261 27.9862L82.7097 27.9477ZM72.9033 27.7525V27.0352H72.1322L72.1878 27.8043L72.9033 27.7525ZM73.0984 35.2009H72.3811V35.9182H73.0984V35.2009ZM80.5305 35.0708H81.2479V34.3272L80.5047 34.3539L80.5305 35.0708ZM80.5305 37.4289L80.5037 38.1458L81.2479 38.1736V37.4289H80.5305ZM73.0984 37.2988V36.5815H72.3811V37.2988H73.0984ZM73.2773 46.6987V47.4161H74.0381L73.9934 46.6566L73.2773 46.6987ZM70.3175 46.6987L69.6009 46.6664L69.567 47.4161H70.3175V46.6987ZM70.3175 25.5245V24.8072H69.5614L69.6011 25.5622L70.3175 25.5245ZM82.8399 25.5245L82.1235 25.4861L81.9934 27.9092L82.7097 27.9477L83.4261 27.9862L83.5562 25.563L82.8399 25.5245ZM82.7097 27.9477L82.7421 27.2311C79.845 27.1004 76.5651 27.0352 72.9033 27.0352V27.7525V28.4699C76.5489 28.4699 79.8066 28.5348 82.6774 28.6643L82.7097 27.9477ZM72.9033 27.7525L72.1878 27.8043C72.3161 29.5787 72.3811 32.0416 72.3811 35.2009H73.0984H73.8158C73.8158 32.0286 73.7507 29.5259 73.6187 27.7008L72.9033 27.7525ZM73.0984 35.2009V35.9182C75.6544 35.9182 78.1404 35.8747 80.5564 35.7877L80.5305 35.0708L80.5047 34.3539C78.1069 34.4404 75.6381 34.4836 73.0984 34.4836V35.2009ZM80.5305 35.0708H79.8132V37.4289H80.5305H81.2479V35.0708H80.5305ZM80.5305 37.4289L80.5573 36.7121C78.2271 36.625 75.7408 36.5815 73.0984 36.5815V37.2988V38.0162C75.7252 38.0162 78.1936 38.0594 80.5037 38.1458L80.5305 37.4289ZM73.0984 37.2988H72.3811C72.3811 41.5404 72.4407 44.6913 72.5612 46.7409L73.2773 46.6987L73.9934 46.6566C73.8755 44.6513 73.8158 41.5356 73.8158 37.2988H73.0984ZM73.2773 46.6987V45.9814H70.3175V46.6987V47.4161H73.2773V46.6987ZM70.3175 46.6987L71.0341 46.7311C71.1864 43.3574 71.2625 39.6385 71.2625 35.575H70.5452H69.8278C69.8278 39.6211 69.7521 43.3181 69.6009 46.6664L70.3175 46.6987ZM70.5452 35.575H71.2625C71.2625 31.7498 71.1864 28.3866 71.0338 25.4868L70.3175 25.5245L69.6011 25.5622C69.7521 28.4304 69.8278 31.7675 69.8278 35.575H70.5452ZM70.3175 25.5245V26.2419H82.8399V25.5245V24.8072H70.3175V25.5245ZM103.883 46.6987V47.4161H104.601V46.6987H103.883ZM100.452 46.6987H99.7345V47.4161H100.452V46.6987ZM98.4027 39.8521L99.0785 39.6115L98.9088 39.1347H98.4027V39.8521ZM89.0191 39.8521V39.1347H88.5127L88.3431 39.6119L89.0191 39.8521ZM87.0025 46.6987V47.4161H87.7198V46.6987H87.0025ZM83.7174 46.6987H83.0001V47.4161H83.7174V46.6987ZM87.9132 36.3068L88.5725 36.5894L88.5727 36.589L87.9132 36.3068ZM92.109 25.5245V24.8072H91.3917V25.5245H92.109ZM95.882 25.5245H96.5993V24.8072H95.882V25.5245ZM97.6546 37.7217V38.439H98.7145L98.3206 37.455L97.6546 37.7217ZM93.8329 27.5737H94.5502V26.8563H93.8329V27.5737ZM93.654 27.5737V26.8563H92.9366V27.5737H93.654ZM89.7021 37.7217L89.0383 37.4497L88.6329 38.439H89.7021V37.7217ZM103.883 46.6987V45.9814H100.452V46.6987V47.4161H103.883V46.6987ZM100.452 46.6987H101.169C101.169 46.4319 101.11 46.087 101.023 45.7034C100.933 45.3055 100.8 44.8153 100.627 44.2366C100.28 43.0784 99.7632 41.5352 99.0785 39.6115L98.4027 39.8521L97.7269 40.0926C98.4083 42.0069 98.9159 43.5239 99.2523 44.6479C99.4207 45.2104 99.5438 45.6667 99.6242 46.021C99.7079 46.3896 99.7345 46.6024 99.7345 46.6987H100.452ZM98.4027 39.8521V39.1347H89.0191V39.8521V40.5694H98.4027V39.8521ZM89.0191 39.8521L88.3431 39.6119C87.6691 41.5091 87.16 43.0396 86.8185 44.1989C86.4879 45.3214 86.2851 46.1873 86.2851 46.6987H87.0025H87.7198C87.7198 46.4296 87.8531 45.7641 88.1947 44.6043C88.5255 43.4814 89.0247 41.9789 89.695 40.0922L89.0191 39.8521ZM87.0025 46.6987V45.9814H83.7174V46.6987V47.4161H87.0025V46.6987ZM83.7174 46.6987H84.4347C84.4347 46.7717 84.4208 46.7752 84.4701 46.6106C84.5082 46.4833 84.5687 46.3039 84.6542 46.0677C84.8245 45.5968 85.083 44.9317 85.4315 44.0684C86.1279 42.3436 87.1745 39.8515 88.5725 36.5894L87.9132 36.3068L87.2539 36.0242C85.8547 39.2889 84.8034 41.7922 84.1012 43.5313C83.7504 44.4 83.4844 45.0841 83.3051 45.5795C83.2158 45.8264 83.1451 46.0344 83.0958 46.1988C83.0577 46.326 83.0001 46.5255 83.0001 46.6987H83.7174ZM87.9132 36.3068L88.5727 36.589C89.9723 33.3178 91.0249 30.7763 91.7286 28.9681C92.08 28.0649 92.3475 27.3369 92.5281 26.7888C92.6182 26.5153 92.6895 26.2782 92.739 26.0819C92.7842 25.9028 92.8263 25.7014 92.8263 25.5245H92.109H91.3917C91.3917 25.5103 91.3901 25.5635 91.3479 25.731C91.31 25.8814 91.2501 26.0829 91.1655 26.3399C90.9964 26.8529 90.7394 27.554 90.3916 28.4478C89.6966 30.2338 88.6513 32.7581 87.2537 36.0246L87.9132 36.3068ZM92.109 25.5245V26.2419H95.882V25.5245V24.8072H92.109V25.5245ZM95.882 25.5245H95.1646C95.1646 25.6971 95.2046 25.8943 95.2477 26.0706C95.2948 26.2636 95.3627 26.4968 95.4486 26.7661C95.6208 27.3057 95.8758 28.0225 96.2109 28.9121C96.8817 30.6929 97.8854 33.1963 99.2199 36.4186L99.8826 36.1442L100.545 35.8697C99.2128 32.6519 98.2161 30.1653 97.5534 28.4063C97.2218 27.5259 96.9766 26.8354 96.8154 26.33C96.7346 26.0769 96.6775 25.8783 96.6413 25.7301C96.6011 25.5653 96.5993 25.5119 96.5993 25.5245H95.882ZM99.8826 36.1442L99.2199 36.4186C100.553 39.6366 101.549 42.1182 102.212 43.8671C102.544 44.7424 102.789 45.4268 102.951 45.9248C103.032 46.1743 103.089 46.369 103.125 46.513C103.166 46.6759 103.166 46.7207 103.166 46.6987H103.883H104.601C104.601 46.5277 104.559 46.3321 104.516 46.1633C104.469 45.9757 104.401 45.7473 104.316 45.4825C104.144 44.9519 103.889 44.2424 103.554 43.3586C102.883 41.5893 101.88 39.0918 100.545 35.8697L99.8826 36.1442ZM97.6546 37.7217L98.3206 37.455C97.0472 34.2743 96.0939 31.843 95.4596 30.1587C95.1421 29.3157 94.9068 28.6657 94.7516 28.2047C94.6737 27.9734 94.6186 27.7973 94.5837 27.6719C94.5396 27.5128 94.5502 27.5099 94.5502 27.5737H93.8329H93.1155C93.1155 27.7376 93.166 27.9282 93.2014 28.0558C93.2462 28.217 93.3105 28.4207 93.3919 28.6624C93.5552 29.1474 93.7975 29.816 94.117 30.6643C94.7566 32.3627 95.7142 34.8049 96.9887 37.9883L97.6546 37.7217ZM93.8329 27.5737V26.8563H93.654V27.5737V28.291H93.8329V27.5737ZM93.654 27.5737H92.9366C92.9366 27.5075 92.9484 27.4727 92.9394 27.5118C92.934 27.5353 92.9234 27.5755 92.9051 27.6364C92.8689 27.7572 92.8116 27.9294 92.7308 28.1574C92.5699 28.6118 92.326 29.259 91.9976 30.1024C91.3413 31.7878 90.3552 34.2361 89.0383 37.4497L89.7021 37.7217L90.3659 37.9937C91.6836 34.778 92.6735 32.3203 93.3344 30.623C93.6646 29.7752 93.9148 29.1118 94.0831 28.6365C94.167 28.3996 94.2332 28.2022 94.2793 28.0486C94.3022 27.9723 94.3225 27.899 94.3377 27.8329C94.3493 27.7825 94.3713 27.6818 94.3713 27.5737H93.654ZM89.7021 37.7217V38.439H97.6546V37.7217V37.0043H89.7021V37.7217ZM123.821 46.6987V47.4161H124.855L124.493 46.4472L123.821 46.6987ZM120.682 46.6987L120.002 46.9263L120.166 47.4161H120.682V46.6987ZM118.405 40.5189L119.054 40.2121L119.052 40.2092L118.405 40.5189ZM116.34 38.0632L116.028 38.7093L116.03 38.7101L116.34 38.0632ZM110.615 37.6566L110.594 36.9396L109.898 36.9607V37.6566H110.615ZM110.811 46.6987V47.4161H111.566L111.527 46.6618L110.811 46.6987ZM107.786 46.6987L107.069 46.6641L107.033 47.4161H107.786V46.6987ZM107.786 25.5245V24.8072H107.027L107.07 25.5649L107.786 25.5245ZM117.625 36.0791L117.35 35.4165L116.907 35.6V36.0791H117.625ZM117.625 36.2417H116.907V36.7755L117.419 36.9288L117.625 36.2417ZM120.52 38.7299L119.895 39.0836L119.896 39.0852L120.52 38.7299ZM110.469 27.7851L110.351 27.0775L109.727 27.1815L109.752 27.8139L110.469 27.7851ZM110.583 35.4774H109.866V36.1712L110.559 36.1943L110.583 35.4774ZM123.821 46.6987V45.9814H120.682V46.6987V47.4161H123.821V46.6987ZM120.682 46.6987L121.362 46.4712C120.324 43.3658 119.552 41.2653 119.054 40.2121L118.405 40.5189L117.757 40.8256C118.213 41.789 118.959 43.8084 120.002 46.9263L120.682 46.6987ZM118.405 40.5189L119.052 40.2092C118.417 38.8812 117.636 37.8885 116.65 37.4162L116.34 38.0632L116.03 38.7101C116.583 38.9751 117.18 39.6195 117.758 40.8286L118.405 40.5189ZM116.34 38.0632L116.651 37.417C115.883 37.0464 114.644 36.9067 113.071 36.9067V37.6241V38.3414C114.642 38.3414 115.583 38.4945 116.028 38.7093L116.34 38.0632ZM113.071 37.6241V36.9067C112.144 36.9067 111.318 36.9176 110.594 36.9396L110.615 37.6566L110.637 38.3736C111.344 38.3522 112.155 38.3414 113.071 38.3414V37.6241ZM110.615 37.6566H109.898C109.898 41.1665 109.963 44.1935 110.094 46.7356L110.811 46.6987L111.527 46.6618C111.398 44.1516 111.333 41.1505 111.333 37.6566H110.615ZM110.811 46.6987V45.9814H107.786V46.6987V47.4161H110.811V46.6987ZM107.786 46.6987L108.502 46.7334C108.665 43.3588 108.747 39.6391 108.747 35.575H108.03H107.312C107.312 39.6205 107.231 43.3167 107.069 46.6641L107.786 46.6987ZM108.03 35.575H108.747C108.747 31.7491 108.665 28.385 108.502 25.4841L107.786 25.5245L107.07 25.5649C107.231 28.4319 107.312 31.7681 107.312 35.575H108.03ZM107.786 25.5245V26.2419H110.079V25.5245V24.8072H107.786V25.5245ZM110.079 25.5245V26.2419C110.581 26.2419 111.21 26.2252 111.964 26.1924L111.933 25.4757L111.902 24.7591C111.159 24.7914 110.552 24.8072 110.079 24.8072V25.5245ZM111.933 25.4757L111.964 26.1924C112.699 26.1604 113.545 26.1443 114.502 26.1443V25.427V24.7096C113.53 24.7096 112.663 24.726 111.902 24.7591L111.933 25.4757ZM114.502 25.427V26.1443C116.816 26.1443 118.425 26.5472 119.437 27.2454C120.402 27.9103 120.908 28.9 120.908 30.3383H121.625H122.343C122.343 28.5024 121.662 27.0364 120.252 26.0642C118.89 25.1253 116.937 24.7096 114.502 24.7096V25.427ZM121.625 30.3383H120.908C120.908 31.5775 120.606 32.587 120.037 33.4044C119.465 34.2247 118.587 34.9035 117.35 35.4165L117.625 36.0791L117.899 36.7417C119.329 36.1488 120.452 35.3179 121.214 34.2246C121.978 33.1284 122.343 31.8205 122.343 30.3383H121.625ZM117.625 36.0791H116.907V36.2417H117.625H118.342V36.0791H117.625ZM117.625 36.2417L117.419 36.9288C118.4 37.2231 119.23 37.9091 119.895 39.0836L120.52 38.7299L121.144 38.3763C120.335 36.9488 119.235 35.9759 117.831 35.5547L117.625 36.2417ZM120.52 38.7299L119.896 39.0852C120.48 40.109 121.56 42.7054 123.149 46.9502L123.821 46.6987L124.493 46.4472C122.916 42.2354 121.795 39.5192 121.143 38.3747L120.52 38.7299ZM118.844 31.4442H119.562C119.562 29.975 119.053 28.7713 117.962 27.9644C116.911 27.1876 115.421 26.8563 113.608 26.8563V27.5737V28.291C115.286 28.291 116.414 28.6048 117.109 29.1182C117.763 29.6015 118.127 30.333 118.127 31.4442H118.844ZM113.608 27.5737V26.8563C112.338 26.8563 111.249 26.9279 110.351 27.0775L110.469 27.7851L110.587 28.4926C111.381 28.3604 112.384 28.291 113.608 28.291V27.5737ZM110.469 27.7851L109.752 27.8139C109.828 29.6864 109.866 32.2395 109.866 35.4774H110.583H111.3C111.3 32.2318 111.262 29.6567 111.186 27.7562L110.469 27.7851ZM110.583 35.4774L110.559 36.1943C111.217 36.2162 111.848 36.2272 112.453 36.2272V35.5099V34.7926C111.865 34.7926 111.25 34.7819 110.607 34.7604L110.583 35.4774ZM112.453 35.5099V36.2272C114.637 36.2272 116.397 35.8842 117.632 35.0987C118.921 34.2783 119.562 33.0231 119.562 31.4442H118.844H118.127C118.127 32.5757 117.702 33.3535 116.862 33.8882C115.966 34.458 114.531 34.7926 112.453 34.7926V35.5099ZM131.708 46.6987V47.4161H132.457L132.424 46.6676L131.708 46.6987ZM128.618 46.6987L127.901 46.6656L127.866 47.4161H128.618V46.6987ZM128.618 25.5245V24.8072H127.858L127.902 25.5652L128.618 25.5245ZM131.708 25.5245L132.424 25.5613L132.463 24.8072H131.708V25.5245ZM131.708 46.6987V45.9814H128.618V46.6987V47.4161H131.708V46.6987ZM128.618 46.6987L129.334 46.7319C129.498 43.207 129.579 39.4879 129.579 35.575H128.862H128.144C128.144 39.4682 128.063 43.165 127.901 46.6656L128.618 46.6987ZM128.862 35.575H129.579C129.579 31.7276 129.498 28.3633 129.334 25.4838L128.618 25.5245L127.902 25.5652C128.063 28.4103 128.144 31.7463 128.144 35.575H128.862ZM128.618 25.5245V26.2419H131.708V25.5245V24.8072H128.618V25.5245ZM131.708 25.5245L130.991 25.4878C130.839 28.4625 130.763 31.8253 130.763 35.575H131.48H132.197C132.197 31.8438 132.273 28.5062 132.424 25.5613L131.708 25.5245ZM131.48 35.575H130.763C130.763 39.5089 130.839 43.2273 130.991 46.7299L131.708 46.6987L132.424 46.6676C132.273 43.188 132.197 39.4906 132.197 35.575H131.48ZM152.263 43.4462L151.717 42.9814L151.716 42.9829L152.263 43.4462ZM138.489 46.6987L137.772 46.6641L137.738 47.374L138.447 47.4149L138.489 46.6987ZM138.489 25.5245V24.8072H137.73L137.772 25.5649L138.489 25.5245ZM152.491 28.2567L151.975 28.7549L151.976 28.7564L152.491 28.2567ZM150.084 30.0456L149.563 30.5387L149.565 30.5405L150.084 30.0456ZM141.107 27.7851L141.01 27.0744L140.368 27.1623L140.39 27.8097L141.107 27.7851ZM141.416 44.487L140.699 44.5153L140.721 45.0796L141.275 45.1904L141.416 44.487ZM150.295 42.2102L149.741 41.7548L149.741 41.7552L150.295 42.2102ZM155.223 35.3473H154.506C154.506 38.2581 153.578 40.7925 151.717 42.9814L152.263 43.4462L152.81 43.9109C154.895 41.4595 155.94 38.5946 155.94 35.3473H155.223ZM152.263 43.4462L151.716 42.9829C149.909 45.1186 147.412 46.2091 144.132 46.2091V46.9264V47.6437C147.769 47.6437 150.693 46.4141 152.811 43.9094L152.263 43.4462ZM144.132 46.9264V46.2091C143.027 46.2091 141.164 46.1343 138.53 45.9826L138.489 46.6987L138.447 47.4149C141.082 47.5667 142.982 47.6437 144.132 47.6437V46.9264ZM138.489 46.6987L139.205 46.7334C139.368 43.3588 139.45 39.6391 139.45 35.575H138.733H138.015C138.015 39.6205 137.934 43.3167 137.772 46.6641L138.489 46.6987ZM138.733 35.575H139.45C139.45 31.7491 139.368 28.385 139.205 25.4841L138.489 25.5245L137.772 25.5649C137.934 28.4319 138.015 31.7681 138.015 35.575H138.733ZM138.489 25.5245V26.2419H140.278V25.5245V24.8072H138.489V25.5245ZM140.278 25.5245V26.2419C140.725 26.2419 141.397 26.2252 142.288 26.1926L142.262 25.4757L142.235 24.7589C141.348 24.7914 140.697 24.8072 140.278 24.8072V25.5245ZM142.262 25.4757L142.288 26.1926C143.18 26.16 143.752 26.1443 144.018 26.1443V25.427V24.7096C143.721 24.7096 143.122 24.7265 142.235 24.7589L142.262 25.4757ZM144.018 25.427V26.1443C147.74 26.1443 150.34 27.0621 151.975 28.7549L152.491 28.2567L153.007 27.7584C150.999 25.6784 147.95 24.7096 144.018 24.7096V25.427ZM152.491 28.2567L151.976 28.7564C153.655 30.4855 154.506 32.6639 154.506 35.3473H155.223H155.94C155.94 32.3278 154.969 29.7792 153.006 27.757L152.491 28.2567ZM152.393 36.0791H153.111C153.111 33.5038 152.281 31.3106 150.603 29.5507L150.084 30.0456L149.565 30.5405C150.967 32.0115 151.676 33.8406 151.676 36.0791H152.393ZM150.084 30.0456L150.605 29.5525C148.89 27.7404 146.295 26.9051 142.977 26.9051V27.6224V28.3398C146.078 28.3398 148.22 29.1199 149.563 30.5387L150.084 30.0456ZM142.977 27.6224V26.9051C142.474 26.9051 141.813 26.9643 141.01 27.0744L141.107 27.7851L141.204 28.4958C141.984 28.389 142.57 28.3398 142.977 28.3398V27.6224ZM141.107 27.7851L140.39 27.8097C140.476 30.3272 140.52 32.9156 140.52 35.575H141.237H141.954C141.954 32.9001 141.911 30.2952 141.824 27.7605L141.107 27.7851ZM141.237 35.575H140.52C140.52 38.512 140.58 41.4921 140.699 44.5153L141.416 44.487L142.133 44.4586C142.014 41.4537 141.954 38.4925 141.954 35.575H141.237ZM141.416 44.487L141.275 45.1904C142.184 45.3722 143.066 45.4645 143.92 45.4645V44.7472V44.0299C143.17 44.0299 142.382 43.9487 141.557 43.7836L141.416 44.487ZM143.92 44.7472V45.4645C146.926 45.4645 149.286 44.5707 150.85 42.6652L150.295 42.2102L149.741 41.7552C148.529 43.2323 146.639 44.0299 143.92 44.0299V44.7472ZM150.295 42.2102L150.85 42.6656C152.363 40.8241 153.111 38.6157 153.111 36.0791H152.393H151.676C151.676 38.3129 151.025 40.1919 149.741 41.7548L150.295 42.2102Z" fill="white" mask="url(#path-11-outside-1_30_184)"/>
<path d="M78.3737 62.991L78.2523 64.3827C77.4864 64.6131 76.652 64.7283 75.7491 64.7283C73.6071 64.7283 71.9974 64.1429 70.9202 62.9723C69.8429 61.7954 69.3043 60.3601 69.3043 58.6664C69.3043 56.8918 69.9052 55.3631 71.107 54.0803C72.3088 52.7914 73.9247 52.1469 75.9546 52.1469C76.515 52.1469 77.1066 52.231 77.7293 52.3991L77.4677 53.8842C76.7516 53.66 76.1134 53.5479 75.553 53.5479C74.0461 53.5479 72.9034 54.015 72.1251 54.949C71.3467 55.883 70.9576 57.0256 70.9576 58.3769C70.9576 59.753 71.4059 60.933 72.3026 61.9168C73.1992 62.9007 74.4384 63.3926 76.02 63.3926C76.624 63.3926 77.4086 63.2587 78.3737 62.991ZM93.6421 64.4761H91.6713C91.6713 64.0589 91.279 62.7481 90.4944 60.5438H85.1051C84.333 62.717 83.9469 64.0277 83.9469 64.4761H82.0602C82.0602 64.2457 82.8634 62.2562 84.47 58.5076C86.0765 54.7528 86.8798 52.6886 86.8798 52.315H89.0467C89.0467 52.6824 89.8126 54.7155 91.3444 58.4142C92.8762 62.113 93.6421 64.1336 93.6421 64.4761ZM90.0648 59.3202C88.6015 55.6651 87.8698 53.7223 87.8698 53.4919H87.7671C87.7671 53.6849 87.0105 55.6277 85.4974 59.3202H90.0648ZM106.762 55.3319C106.762 56.7517 106.224 57.8133 105.146 58.517C104.069 59.2206 102.621 59.5724 100.803 59.5724C100.573 59.5724 100.373 59.5662 100.205 59.5537C100.205 60.9112 100.255 62.552 100.355 64.4761H98.5615C98.6549 62.7076 98.7016 60.5781 98.7016 58.0873C98.7016 55.9453 98.6549 54.0212 98.5615 52.315H99.8971C100.04 52.315 100.448 52.3057 101.121 52.287C101.799 52.2683 102.375 52.259 102.849 52.259C104.044 52.259 104.994 52.533 105.697 53.0809C106.407 53.6227 106.762 54.373 106.762 55.3319ZM105.202 55.8737C105.202 54.2734 104.11 53.4732 101.924 53.4732C101.388 53.4732 100.788 53.5199 100.121 53.6133C100.165 54.6283 100.187 56.2099 100.187 58.3582C100.405 58.3706 100.672 58.3769 100.99 58.3769C103.798 58.3769 105.202 57.5425 105.202 55.8737ZM113.97 64.4761H112.195C112.289 62.4586 112.335 60.329 112.335 58.0873C112.335 55.883 112.289 53.9589 112.195 52.315H113.97C113.883 54.015 113.839 55.9391 113.839 58.0873C113.839 60.3414 113.883 62.471 113.97 64.4761ZM128.323 52.315L128.276 53.632C127.043 53.5697 125.77 53.5386 124.456 53.5386C124.444 54.7342 124.437 56.2504 124.437 58.0873C124.437 60.1173 124.469 62.2469 124.531 64.4761H122.822C122.896 62.3527 122.934 60.2231 122.934 58.0873C122.934 56.2753 122.915 54.7591 122.878 53.5386C121.956 53.5386 120.661 53.576 118.992 53.6507L119.039 52.315H128.323ZM142.891 64.4761H140.92C140.92 64.0589 140.528 62.7481 139.743 60.5438H134.354C133.582 62.717 133.196 64.0277 133.196 64.4761H131.309C131.309 64.2457 132.112 62.2562 133.719 58.5076C135.325 54.7528 136.128 52.6886 136.128 52.315H138.295C138.295 52.6824 139.061 54.7155 140.593 58.4142C142.125 62.113 142.891 64.1336 142.891 64.4761ZM139.313 59.3202C137.85 55.6651 137.119 53.7223 137.119 53.4919H137.016C137.016 53.6849 136.259 55.6277 134.746 59.3202H139.313ZM155.217 63.1031L155.161 64.4761H147.81C147.885 62.938 147.922 60.8085 147.922 58.0873C147.922 55.746 147.885 53.8219 147.81 52.315H149.547C149.473 53.5728 149.435 55.4969 149.435 58.0873C149.435 60.2169 149.401 61.9231 149.333 63.2058C151.201 63.2058 153.162 63.1715 155.217 63.1031Z" fill="white"/>
</svg>
