<svg width="60" height="60" viewBox="0 0 60 60" fill="none" xmlns="http://www.w3.org/2000/svg">
<path fill-rule="evenodd" clip-rule="evenodd" d="M13.2793 26.9038C20.5752 13.9679 24.2231 7.5 30 7.5C35.7767 7.5 39.4247 13.9679 46.7207 26.9038L47.6297 28.5157C53.6927 39.2652 56.7242 44.64 53.9842 48.57C51.2445 52.5 44.466 52.5 30.9092 52.5H29.0907C15.5339 52.5 8.75542 52.5 6.01565 48.57C3.27585 44.64 6.30728 39.2652 12.3701 28.5157L13.2793 26.9038ZM30 18.125C31.0355 18.125 31.875 18.9645 31.875 20V32.5C31.875 33.5355 31.0355 34.375 30 34.375C28.9645 34.375 28.125 33.5355 28.125 32.5V20C28.125 18.9645 28.9645 18.125 30 18.125ZM30 42.5C31.3807 42.5 32.5 41.3807 32.5 40C32.5 38.6192 31.3807 37.5 30 37.5C28.6192 37.5 27.5 38.6192 27.5 40C27.5 41.3807 28.6192 42.5 30 42.5Z" fill="white"/>
</svg>
