<svg width="135" height="135" viewBox="0 0 135 135" fill="none" xmlns="http://www.w3.org/2000/svg">
<path fill-rule="evenodd" clip-rule="evenodd" d="M73.125 5.625C73.125 2.5184 70.6066 0 67.5 0C64.3934 0 61.875 2.5184 61.875 5.625V8.70187C33.75 11.3569 11.3625 33.7444 8.70187 61.875H5.625C2.5184 61.875 0 64.3934 0 67.5C0 70.6066 2.5184 73.125 5.625 73.125H8.70187C11.3569 101.25 33.7444 123.637 61.875 126.298V129.375C61.875 132.482 64.3934 135 67.5 135C70.6066 135 73.125 132.482 73.125 129.375V126.298C101.25 123.637 123.637 101.256 126.298 73.125H129.375C132.482 73.125 135 70.6066 135 67.5C135 64.3934 132.482 61.875 129.375 61.875H126.298C123.637 33.75 101.256 11.3625 73.125 8.70187V5.625ZM20.0138 61.875C22.6199 39.9255 39.9255 22.6199 61.875 20.0137V22.5C61.875 25.6066 64.3934 28.125 67.5 28.125C70.6066 28.125 73.125 25.6066 73.125 22.5V20.0138C95.0745 22.6199 112.38 39.9255 114.986 61.875H112.5C109.393 61.875 106.875 64.3934 106.875 67.5C106.875 70.6066 109.393 73.125 112.5 73.125H114.986C112.38 95.0745 95.0745 112.38 73.125 114.986V112.5C73.125 109.393 70.6066 106.875 67.5 106.875C64.3934 106.875 61.875 109.393 61.875 112.5V114.986C39.9255 112.38 22.6199 95.0745 20.0137 73.125H22.5C25.6066 73.125 28.125 70.6066 28.125 67.5C28.125 64.3934 25.6066 61.875 22.5 61.875H20.0138ZM67.5 40.4269L39.375 55.8956V63.6356H44.7356V88.5938H39.375C37.0451 88.5938 35.1562 90.4826 35.1562 92.8125C35.1562 95.1424 37.0451 97.0312 39.375 97.0312H95.625C97.9549 97.0312 99.8438 95.1424 99.8438 92.8125C99.8438 90.4826 97.9549 88.5938 95.625 88.5938H90.2644V64.6875C90.2644 64.3307 90.219 63.9753 90.1294 63.63H95.625V55.9012L67.5 40.4325V40.4269ZM71.7188 88.5938H81.8269V64.6875C81.8269 64.3219 81.8719 63.9675 81.9562 63.63H71.5837C71.6738 63.9675 71.7188 64.3219 71.7188 64.6875V88.5938ZM63.4163 63.63C63.3269 63.9754 63.2815 64.3307 63.2812 64.6875V88.5938H53.1731V63.63H63.4106H63.4163Z" fill="white"/>
</svg>
