<svg width="129" height="129" viewBox="0 0 129 129" fill="none" xmlns="http://www.w3.org/2000/svg">
<path fill-rule="evenodd" clip-rule="evenodd" d="M55.192 115.926C54.8058 115.285 54.1737 114.831 53.4434 114.669C48.838 113.716 44.3748 112.174 40.1645 110.078V103.084C40.1673 99.1282 41.9051 95.3729 44.9186 92.8105C47.3691 90.8021 49.3783 88.3092 50.8204 85.488C51.4401 83.0484 52.2815 80.6705 53.3341 78.3841C53.4327 77.1109 53.4327 75.832 53.3341 74.5589C53.425 61.2706 42.742 50.4165 29.454 50.2963L12.1313 50.2963C17.8315 26.1061 39.4105 9.00572 64.2632 8.98422C75.0588 8.96349 85.6028 12.243 94.4822 18.3833H76.3398C70.8643 18.0496 65.6557 20.7812 62.817 25.4754C59.9784 30.1695 59.9784 36.051 62.817 40.7451C65.6557 45.4392 70.8643 48.1709 76.3398 47.8372C80.199 47.8533 83.8714 49.5009 86.4493 52.3728C87.0085 52.9793 87.8119 53.3006 88.6351 53.2471C89.6092 53.0171 90.594 52.8347 91.586 52.7007C99.2995 52.7219 106.86 54.8577 113.444 58.8756C114.49 59.538 115.857 59.3785 116.723 58.4931L117.87 57.3455C119.869 55.3039 122.61 54.1603 125.466 54.1761C126.013 54.1773 126.533 53.9374 126.887 53.5203C127.227 53.1083 127.385 52.5757 127.324 52.0449C121.098 19.9011 91.7005 -2.42257 59.0653 0.210653C26.4301 2.84388 0.992161 29.5921 0 62.3183C0 85.7066 16.3937 121.445 56.886 126.144C57.9701 126.262 59.0173 125.71 59.5335 124.75C60.0498 123.79 59.932 122.612 59.2358 121.773C57.7336 119.935 56.3814 117.98 55.192 115.926ZM126.887 62.5915C125.884 62.1536 124.716 62.3699 123.936 63.138L117.925 69.0943C116.895 70.059 115.294 70.059 114.264 69.0943C103.747 59.9313 88.7151 58.0844 76.293 64.429C63.8709 70.7736 56.5553 84.0346 57.8137 97.9263C59.0722 111.818 68.6519 123.548 82.0119 127.557C95.372 131.566 109.827 127.048 118.526 116.144C119.742 113.819 119.134 110.958 117.077 109.329C115.02 107.7 112.096 107.762 110.111 109.477C104.249 116.954 94.4548 120.153 85.31 117.579C76.1652 115.005 69.4781 107.166 68.3772 97.7295C67.2763 88.2933 71.9793 79.1256 80.2859 74.5153C88.5925 69.9051 98.8603 70.7639 106.286 76.6901C106.877 77.153 107.237 77.8519 107.269 78.6027C107.326 79.3728 107.047 80.1297 106.504 80.6792L100.111 87.0727C99.3356 87.8321 99.0954 88.9842 99.5025 89.99C99.9097 90.9958 100.884 91.6565 101.969 91.6629L125.849 91.6629C127.328 91.6629 128.526 90.4641 128.526 88.9853V65.0506C128.538 63.9717 127.887 62.996 126.887 62.5915Z" fill="white"/>
</svg>
