<svg width="128" height="128" viewBox="0 0 128 128" fill="none" xmlns="http://www.w3.org/2000/svg">
<path fill-rule="evenodd" clip-rule="evenodd" d="M124.531 51.6274C119.895 47.0314 112.421 47.0314 107.785 51.6274L51.6267 107.786C47.0024 112.41 47.0024 119.907 51.6267 124.532C56.251 129.156 63.7485 129.156 68.3728 124.532L124.531 68.3735C129.156 63.7496 129.156 56.2513 124.531 51.6274ZM59.9998 123.732C56.932 123.753 54.1542 121.922 52.9652 119.094C51.7762 116.266 52.4109 113 54.5726 110.823C56.7342 108.646 59.9957 107.988 62.8321 109.157C65.6685 110.326 67.5194 113.091 67.5195 116.159C67.5196 120.32 64.1614 123.702 59.9998 123.732ZM76.3726 3.46894C71.7486 -1.15631 64.2504 -1.15631 59.6264 3.46894L3.46824 59.6272C-1.15608 64.2515 -1.15608 71.749 3.46824 76.3733C8.09256 80.9976 15.5901 80.9976 20.2144 76.3733L76.3726 20.2151C80.9686 15.5791 80.9686 8.10495 76.3726 3.46894ZM67.9995 19.4684C64.9269 19.49 62.1458 17.6528 60.96 14.8182C59.7741 11.9835 60.4187 8.71327 62.5914 6.54054C64.7641 4.36781 68.0343 3.72328 70.869 4.90911C73.7037 6.09493 75.5408 8.87603 75.5193 11.9487C75.4609 16.06 72.1113 19.3622 67.9995 19.3618V19.4684ZM100.425 27.5748C98.2138 25.357 95.2107 24.1105 92.0788 24.1105C88.9468 24.1105 85.9437 25.357 83.7324 27.5748L27.5741 83.7331C22.963 88.3424 22.9622 95.8173 27.5725 100.428C32.1827 105.038 39.6576 105.037 44.2669 100.426L100.425 44.2676C102.656 42.0634 103.912 39.0576 103.912 35.9212C103.912 32.7849 102.656 29.7791 100.425 27.5748ZM63.9996 71.5201C59.8466 71.5201 56.4799 68.1534 56.4799 64.0003C56.4799 59.8473 59.8466 56.4806 63.9996 56.4806C68.1527 56.4806 71.5194 59.8473 71.5194 64.0003C71.5194 68.1534 68.1527 71.5201 63.9996 71.5201Z" fill="white"/>
</svg>
