<svg width="167" height="164" viewBox="0 0 167 164" fill="none" xmlns="http://www.w3.org/2000/svg">
<path fill-rule="evenodd" clip-rule="evenodd" d="M142.966 16.6561C142.966 14.935 141.912 13.8801 140.19 13.8801H16.6578C14.9436 13.8801 13.8818 14.935 13.8818 16.6561V111.735C13.8818 113.449 14.9436 114.511 16.6578 114.511H72.7888V152.237C72.7888 153.632 72.9901 154.943 73.344 156.151H49.9631C46.1302 156.151 43.023 153.044 43.023 149.211C43.023 145.378 46.1302 142.271 49.9631 142.271H52.8362L55.2652 128.391H16.6578C12.221 128.455 7.947 126.721 4.80935 123.583C1.67169 120.445 -0.0625073 116.171 0.00172271 111.735V16.6561C0.00172271 7.26622 7.27488 0 16.6578 0H140.19C149.58 0 156.847 7.26622 156.847 16.6561V73.4117C156.847 77.2446 153.739 80.3517 149.907 80.3517C146.074 80.3517 142.966 77.2446 142.966 73.4117V16.6561ZM65.1548 23.2908C45.8892 23.2908 30.4546 38.7254 30.4546 57.9909C30.4546 77.2565 45.8892 92.6911 65.1548 92.6911C73.7257 92.6911 80.6797 89.5473 86.6689 85.0571C87.841 84.1818 88.3384 82.6655 87.9123 81.2661C87.4863 79.8666 86.2283 78.8847 84.7673 78.8111C73.4551 78.2211 65.1548 69.3587 65.1548 57.9909C65.1644 46.9538 73.7638 37.8313 84.7812 37.1708C86.2398 37.0919 87.4927 36.108 87.9153 34.7098C88.3379 33.3115 87.8396 31.7984 86.6689 30.9248C80.6797 26.4346 73.7257 23.2908 65.1548 23.2908ZM96.3849 44.1109C100.218 44.1109 103.325 47.218 103.325 51.0509C107.158 51.0509 110.265 54.1581 110.265 57.9909C110.265 61.8238 107.158 64.931 103.325 64.931C103.325 68.7639 100.218 71.871 96.3849 71.871C92.5521 71.871 89.4449 68.7639 89.4449 64.931C85.612 64.931 82.5049 61.8238 82.5049 57.9909C82.5049 54.1581 85.612 51.0509 89.4449 51.0509C89.4449 47.218 92.5521 44.1109 96.3849 44.1109ZM119.634 107.598C114.825 104.337 105.775 100.658 89.0285 99.77C85.6973 99.77 83.1989 101.436 83.1989 103.934V152.237C83.1989 154.735 85.6973 156.401 88.1957 156.401C105.476 156.845 114.748 160.592 119.634 164V107.598ZM130.044 164C134.93 160.592 144.202 156.852 161.483 156.401C163.981 156.401 166.479 154.735 166.479 152.237V103.934C166.479 101.436 163.981 99.77 160.65 99.77C143.903 100.651 134.854 104.33 130.044 107.598V164Z" fill="white"/>
</svg>
